SplineFontDB: 3.0
FontName: Squary
FullName: Squary Regular
FamilyName: Squary
Weight: Book
Copyright: Copyright GuyStruct 2014
Version: 1.0
ItalicAngle: 0
UnderlinePosition: 127
UnderlineWidth: 51
Ascent: 819
Descent: 205
sfntRevision: 0x00010000
LayerCount: 2
Layer: 0 1 "Arri+AOgA-re"  1
Layer: 1 1 "Avant"  0
XUID: [1021 294 1740832763 9814489]
FSType: 4
OS2Version: 2
OS2_WeightWidthSlopeOnly: 0
OS2_UseTypoMetrics: 1
CreationTime: 1391975984
ModificationTime: 1407857491
PfmFamily: 81
TTFWeight: 400
TTFWidth: 5
LineGap: 0
VLineGap: 0
Panose: 0 0 4 0 0 0 0 0 0 0
OS2TypoAscent: 448
OS2TypoAOffset: 0
OS2TypoDescent: -128
OS2TypoDOffset: 0
OS2TypoLinegap: 0
OS2WinAscent: 512
OS2WinAOffset: 0
OS2WinDescent: 256
OS2WinDOffset: 0
HheadAscent: 512
HheadAOffset: 0
HheadDescent: -256
HheadDOffset: 0
OS2SubXSize: 512
OS2SubYSize: 512
OS2SubXOff: 0
OS2SubYOff: -64
OS2SupXSize: 512
OS2SupYSize: 512
OS2SupXOff: 0
OS2SupYOff: 512
OS2StrikeYSize: 51
OS2StrikeYPos: 204
OS2Vendor: 'FSTR'
OS2CodePages: 000001fb.00000000
OS2UnicodeRanges: a0000007.4000000a.00000000.00000000
DEI: 91125
ShortTable: maxp 16
  1
  0
  168
  38
  9
  0
  0
  2
  0
  0
  0
  0
  0
  0
  0
  0
EndShort
LangName: 1033 "" "" "Regular" "FontStruct Squary" "" "Version 1.0" "" "FontStruct is a trademark of FSI FontShop International GmbH" "http://fontstruct.com" "GuyStruct" "+IBoAxAD6-Squary+IBoAxAD5 was built with FontStruct+AAoA" "http://www.fontshop.com" "http://fontstruct.com/fontstructions/show/946713" "Creative Commons Attribution Share Alike" "http://creativecommons.org/licenses/by-sa/3.0/" "" "" "" "" "Five big quacking zephyrs jolt my wax bed" 
Encoding: UnicodeBmp
UnicodeInterp: none
NameList: Adobe Glyph List
DisplaySize: -24
AntiAlias: 1
FitToEm: 1
WinInfo: 0 37 22
BeginChars: 65539 168

StartChar: .notdef
Encoding: 65536 -1 0
Width: 238
VWidth: 576
Flags: W
LayerCount: 2
Fore
SplineSet
224 153.16 m 1,0,-1
 224 184.4 l 1,1,-1
 192.32 184.4 l 1,2,-1
 192.32 153.16 l 1,3,-1
 224 153.16 l 1,0,-1
255.24 189.68 m 1,4,-1
 255.24 221.36 l 1,5,-1
 192.32 221.36 l 1,6,-1
 192.32 189.68 l 1,7,-1
 255.24 189.68 l 1,4,-1
224 226.2 m 1,8,-1
 224 257.88 l 1,9,-1
 192.32 257.88 l 1,10,-1
 192.32 226.2 l 1,11,-1
 224 226.2 l 1,8,-1
255.24 263.16 m 1,12,-1
 255.24 293.96 l 1,13,-1
 224 293.96 l 2,14,15
 210.8 293.96 210.8 293.96 201.56 285.16 c 0,16,17
 192.32 275.92 192.32 275.92 192.32 263.16 c 1,18,-1
 255.24 263.16 l 1,12,-1
125.44 125.44 m 1,19,-1
 125.44 322.56 l 1,20,-1
 322.56 322.56 l 1,21,-1
 322.56 125.44 l 1,22,-1
 125.44 125.44 l 1,19,-1
EndSplineSet
EndChar

StartChar: exclam
Encoding: 33 33 4
Width: 74
VWidth: 540
Flags: W
LayerCount: 2
Fore
SplineSet
17.9199 89.5996 m 1,0,-1
 17.9199 117.76 l 1,1,-1
 46.0801 117.76 l 1,2,-1
 46.0801 89.5996 l 1,3,-1
 17.9199 89.5996 l 1,0,-1
17.9199 145.92 m 1,4,-1
 17.9199 230.4 l 1,5,-1
 46.0801 230.4 l 1,6,-1
 46.0801 145.92 l 1,7,-1
 17.9199 145.92 l 1,4,-1
EndSplineSet
EndChar

StartChar: quotedbl
Encoding: 34 34 5
Width: 166
VWidth: 593
Flags: W
LayerCount: 2
Fore
SplineSet
53.7598 227.84 m 1,0,-1
 53.7598 284.16 l 1,1,-1
 81.9199 284.16 l 1,2,-1
 81.9199 227.84 l 1,3,-1
 53.7598 227.84 l 1,0,-1
110.08 227.84 m 1,4,-1
 110.08 284.16 l 1,5,-1
 138.24 284.16 l 1,6,-1
 138.24 227.84 l 1,7,-1
 110.08 227.84 l 1,4,-1
EndSplineSet
EndChar

StartChar: numbersign
Encoding: 35 35 6
Width: 258
VWidth: 540
Flags: W
LayerCount: 2
Fore
SplineSet
174.08 145.92 m 1,0,-1
 174.08 174.08 l 1,1,-1
 145.92 174.08 l 1,2,-1
 145.92 145.92 l 1,3,-1
 174.08 145.92 l 1,0,-1
117.76 89.5996 m 1,4,-1
 117.76 117.76 l 1,5,-1
 89.5996 117.76 l 1,6,-1
 89.5996 145.92 l 1,7,-1
 117.76 145.92 l 1,8,-1
 117.76 174.08 l 1,9,-1
 89.5996 174.08 l 1,10,-1
 89.5996 202.24 l 1,11,-1
 117.76 202.24 l 1,12,-1
 117.76 230.4 l 1,13,-1
 145.92 230.4 l 1,14,-1
 145.92 202.24 l 1,15,-1
 174.08 202.24 l 1,16,-1
 174.08 230.4 l 1,17,-1
 202.24 230.4 l 1,18,-1
 202.24 202.24 l 1,19,-1
 230.4 202.24 l 1,20,-1
 230.4 174.08 l 1,21,-1
 202.24 174.08 l 1,22,-1
 202.24 145.92 l 1,23,-1
 230.4 145.92 l 1,24,-1
 230.4 117.76 l 1,25,-1
 202.24 117.76 l 1,26,-1
 202.24 89.5996 l 1,27,-1
 174.08 89.5996 l 1,28,-1
 174.08 117.76 l 1,29,-1
 145.92 117.76 l 1,30,-1
 145.92 89.5996 l 1,31,-1
 117.76 89.5996 l 1,4,-1
EndSplineSet
EndChar

StartChar: dollar
Encoding: 36 36 7
Width: 166
VWidth: 576
Flags: W
LayerCount: 2
Fore
SplineSet
81.9199 125.44 m 1,0,-1
 81.9199 153.6 l 1,1,-1
 53.7598 153.6 l 1,2,-1
 53.7598 181.76 l 1,3,-1
 81.9199 181.76 l 1,4,-1
 81.9199 209.92 l 1,5,-1
 53.7598 209.92 l 1,6,-1
 53.7598 294.4 l 1,7,-1
 81.9199 294.4 l 1,8,-1
 81.9199 322.56 l 1,9,-1
 110.08 322.56 l 1,10,-1
 110.08 294.4 l 1,11,-1
 138.24 294.4 l 1,12,-1
 138.24 266.24 l 1,13,-1
 110.08 266.24 l 1,14,-1
 110.08 238.08 l 1,15,-1
 138.24 238.08 l 1,16,-1
 138.24 153.6 l 1,17,-1
 110.08 153.6 l 1,18,-1
 110.08 125.44 l 1,19,-1
 81.9199 125.44 l 1,0,-1
EndSplineSet
EndChar

StartChar: percent
Encoding: 37 37 8
Width: 258
VWidth: 540
Flags: W
LayerCount: 2
Fore
SplineSet
89.5996 89.5996 m 1,0,-1
 89.5996 117.76 l 1,1,-1
 117.76 117.76 l 1,2,-1
 117.76 89.5996 l 1,3,-1
 89.5996 89.5996 l 1,0,-1
117.76 117.76 m 1,4,-1
 117.76 145.92 l 1,5,-1
 145.92 145.92 l 1,6,-1
 145.92 117.76 l 1,7,-1
 117.76 117.76 l 1,4,-1
174.08 89.5996 m 1,8,-1
 174.08 145.92 l 1,9,-1
 230.4 145.92 l 1,10,-1
 230.4 89.5996 l 1,11,-1
 174.08 89.5996 l 1,8,-1
145.92 145.92 m 1,12,-1
 145.92 174.08 l 1,13,-1
 174.08 174.08 l 1,14,-1
 174.08 145.92 l 1,15,-1
 145.92 145.92 l 1,12,-1
174.08 174.08 m 1,16,-1
 174.08 202.24 l 1,17,-1
 202.24 202.24 l 1,18,-1
 202.24 174.08 l 1,19,-1
 174.08 174.08 l 1,16,-1
89.5996 174.08 m 1,20,-1
 89.5996 230.4 l 1,21,-1
 145.92 230.4 l 1,22,-1
 145.92 174.08 l 1,23,-1
 89.5996 174.08 l 1,20,-1
202.24 202.24 m 1,24,-1
 202.24 230.4 l 1,25,-1
 230.4 230.4 l 1,26,-1
 230.4 202.24 l 1,27,-1
 202.24 202.24 l 1,24,-1
EndSplineSet
EndChar

StartChar: ampersand
Encoding: 38 38 9
Width: 212
VWidth: 540
Flags: W
LayerCount: 2
Fore
SplineSet
128 117.76 m 1,0,-1
 128 145.92 l 1,1,-1
 99.8398 145.92 l 1,2,-1
 99.8398 117.76 l 1,3,-1
 128 117.76 l 1,0,-1
128 174.08 m 1,4,-1
 128 202.24 l 1,5,-1
 99.8398 202.24 l 1,6,-1
 99.8398 174.08 l 1,7,-1
 128 174.08 l 1,4,-1
71.6797 89.5996 m 1,8,-1
 71.6797 230.4 l 1,9,-1
 156.16 230.4 l 1,10,-1
 156.16 117.76 l 1,11,-1
 184.32 117.76 l 1,12,-1
 184.32 89.5996 l 1,13,-1
 71.6797 89.5996 l 1,8,-1
EndSplineSet
EndChar

StartChar: quotesingle
Encoding: 39 39 10
Width: 74
VWidth: 593
Flags: W
LayerCount: 2
Fore
SplineSet
17.9199 227.84 m 1,0,-1
 17.9199 284.16 l 1,1,-1
 46.0801 284.16 l 1,2,-1
 46.0801 227.84 l 1,3,-1
 17.9199 227.84 l 1,0,-1
EndSplineSet
EndChar

StartChar: parenleft
Encoding: 40 40 11
Width: 166
VWidth: 540
Flags: W
LayerCount: 2
Fore
SplineSet
81.9199 89.5996 m 1,0,-1
 81.9199 117.76 l 1,1,-1
 138.24 117.76 l 1,2,-1
 138.24 89.5996 l 1,3,-1
 81.9199 89.5996 l 1,0,-1
53.7598 117.76 m 1,4,-1
 53.7598 202.24 l 1,5,-1
 81.9199 202.24 l 1,6,-1
 81.9199 117.76 l 1,7,-1
 53.7598 117.76 l 1,4,-1
81.9199 202.24 m 1,8,-1
 81.9199 230.4 l 1,9,-1
 138.24 230.4 l 1,10,-1
 138.24 202.24 l 1,11,-1
 81.9199 202.24 l 1,8,-1
EndSplineSet
EndChar

StartChar: parenright
Encoding: 41 41 12
Width: 166
VWidth: 540
Flags: W
LayerCount: 2
Fore
SplineSet
53.7598 89.5996 m 1,0,-1
 53.7598 117.76 l 1,1,-1
 110.08 117.76 l 1,2,-1
 110.08 89.5996 l 1,3,-1
 53.7598 89.5996 l 1,0,-1
110.08 117.76 m 1,4,-1
 110.08 202.24 l 1,5,-1
 138.24 202.24 l 1,6,-1
 138.24 117.76 l 1,7,-1
 110.08 117.76 l 1,4,-1
53.7598 202.24 m 1,8,-1
 53.7598 230.4 l 1,9,-1
 110.08 230.4 l 1,10,-1
 110.08 202.24 l 1,11,-1
 53.7598 202.24 l 1,8,-1
EndSplineSet
EndChar

StartChar: asterisk
Encoding: 42 42 13
Width: 74
VWidth: 611
Flags: W
LayerCount: 2
Fore
SplineSet
17.9199 273.92 m 1,0,-1
 17.9199 302.08 l 1,1,-1
 46.0801 302.08 l 1,2,-1
 46.0801 273.92 l 1,3,-1
 17.9199 273.92 l 1,0,-1
EndSplineSet
EndChar

StartChar: plus
Encoding: 43 43 14
Width: 166
VWidth: 540
Flags: W
LayerCount: 2
Fore
SplineSet
81.9199 117.76 m 1,0,-1
 81.9199 145.92 l 1,1,-1
 53.7598 145.92 l 1,2,-1
 53.7598 174.08 l 1,3,-1
 81.9199 174.08 l 1,4,-1
 81.9199 202.24 l 1,5,-1
 110.08 202.24 l 1,6,-1
 110.08 174.08 l 1,7,-1
 138.24 174.08 l 1,8,-1
 138.24 145.92 l 1,9,-1
 110.08 145.92 l 1,10,-1
 110.08 117.76 l 1,11,-1
 81.9199 117.76 l 1,0,-1
EndSplineSet
EndChar

StartChar: comma
Encoding: 44 44 15
Width: 120
VWidth: 450
Flags: W
LayerCount: 2
Fore
SplineSet
64 -28.1602 m 1,0,-1
 64 0 l 1,1,-1
 35.8398 0 l 1,2,-1
 35.8398 28.1602 l 1,3,-1
 92.1602 28.1602 l 1,4,-1
 92.1602 -28.1602 l 1,5,-1
 64 -28.1602 l 1,0,-1
EndSplineSet
EndChar

StartChar: hyphen
Encoding: 45 45 16
Width: 166
VWidth: 540
Flags: W
LayerCount: 2
Fore
SplineSet
53.7598 145.92 m 1,0,-1
 53.7598 174.08 l 1,1,-1
 138.24 174.08 l 1,2,-1
 138.24 145.92 l 1,3,-1
 53.7598 145.92 l 1,0,-1
EndSplineSet
EndChar

StartChar: period
Encoding: 46 46 17
Width: 74
VWidth: 468
Flags: W
LayerCount: 2
Fore
SplineSet
17.9199 17.9199 m 1,0,-1
 17.9199 46.0801 l 1,1,-1
 46.0801 46.0801 l 1,2,-1
 46.0801 17.9199 l 1,3,-1
 17.9199 17.9199 l 1,0,-1
EndSplineSet
EndChar

StartChar: slash
Encoding: 47 47 18
Width: 258
VWidth: 540
Flags: W
LayerCount: 2
Fore
SplineSet
89.5996 89.5996 m 1,0,-1
 89.5996 117.76 l 1,1,-1
 117.76 117.76 l 1,2,-1
 117.76 89.5996 l 1,3,-1
 89.5996 89.5996 l 1,0,-1
117.76 117.76 m 1,4,-1
 117.76 145.92 l 1,5,-1
 145.92 145.92 l 1,6,-1
 145.92 117.76 l 1,7,-1
 117.76 117.76 l 1,4,-1
145.92 145.92 m 1,8,-1
 145.92 174.08 l 1,9,-1
 174.08 174.08 l 1,10,-1
 174.08 145.92 l 1,11,-1
 145.92 145.92 l 1,8,-1
174.08 174.08 m 1,12,-1
 174.08 202.24 l 1,13,-1
 202.24 202.24 l 1,14,-1
 202.24 174.08 l 1,15,-1
 174.08 174.08 l 1,12,-1
202.24 202.24 m 1,16,-1
 202.24 230.4 l 1,17,-1
 230.4 230.4 l 1,18,-1
 230.4 202.24 l 1,19,-1
 202.24 202.24 l 1,16,-1
EndSplineSet
EndChar

StartChar: zero
Encoding: 48 48 19
Width: 166
VWidth: 540
Flags: W
LayerCount: 2
Fore
SplineSet
110.08 117.76 m 1,0,-1
 110.08 202.24 l 1,1,-1
 81.9199 202.24 l 1,2,-1
 81.9199 117.76 l 1,3,-1
 110.08 117.76 l 1,0,-1
53.7598 89.5996 m 1,4,-1
 53.7598 230.4 l 1,5,-1
 138.24 230.4 l 1,6,-1
 138.24 89.5996 l 1,7,-1
 53.7598 89.5996 l 1,4,-1
EndSplineSet
EndChar

StartChar: one
Encoding: 49 49 20
Width: 166
VWidth: 540
Flags: W
LayerCount: 2
Fore
SplineSet
81.9199 89.5996 m 1,0,-1
 81.9199 230.4 l 1,1,-1
 110.08 230.4 l 1,2,-1
 110.08 89.5996 l 1,3,-1
 81.9199 89.5996 l 1,0,-1
EndSplineSet
EndChar

StartChar: two
Encoding: 50 50 21
Width: 166
VWidth: 540
Flags: W
LayerCount: 2
Fore
SplineSet
53.7598 89.5996 m 1,0,-1
 53.7598 174.08 l 1,1,-1
 110.08 174.08 l 1,2,-1
 110.08 202.24 l 1,3,-1
 53.7598 202.24 l 1,4,-1
 53.7598 230.4 l 1,5,-1
 138.24 230.4 l 1,6,-1
 138.24 145.92 l 1,7,-1
 81.9199 145.92 l 1,8,-1
 81.9199 117.76 l 1,9,-1
 138.24 117.76 l 1,10,-1
 138.24 89.5996 l 1,11,-1
 53.7598 89.5996 l 1,0,-1
EndSplineSet
EndChar

StartChar: three
Encoding: 51 51 22
Width: 166
VWidth: 540
Flags: W
LayerCount: 2
Fore
SplineSet
53.7598 89.5996 m 1,0,-1
 53.7598 117.76 l 1,1,-1
 110.08 117.76 l 1,2,-1
 110.08 145.92 l 1,3,-1
 53.7598 145.92 l 1,4,-1
 53.7598 174.08 l 1,5,-1
 110.08 174.08 l 1,6,-1
 110.08 202.24 l 1,7,-1
 53.7598 202.24 l 1,8,-1
 53.7598 230.4 l 1,9,-1
 138.24 230.4 l 1,10,-1
 138.24 89.5996 l 1,11,-1
 53.7598 89.5996 l 1,0,-1
EndSplineSet
EndChar

StartChar: four
Encoding: 52 52 23
Width: 166
VWidth: 540
Flags: W
LayerCount: 2
Fore
SplineSet
110.08 89.5996 m 1,0,-1
 110.08 145.92 l 1,1,-1
 53.7598 145.92 l 1,2,-1
 53.7598 230.4 l 1,3,-1
 81.9199 230.4 l 1,4,-1
 81.9199 174.08 l 1,5,-1
 110.08 174.08 l 1,6,-1
 110.08 230.4 l 1,7,-1
 138.24 230.4 l 1,8,-1
 138.24 89.5996 l 1,9,-1
 110.08 89.5996 l 1,0,-1
EndSplineSet
EndChar

StartChar: five
Encoding: 53 53 24
Width: 166
VWidth: 540
Flags: W
LayerCount: 2
Fore
SplineSet
53.7598 89.5996 m 1,0,-1
 53.7598 117.76 l 1,1,-1
 110.08 117.76 l 1,2,-1
 110.08 145.92 l 1,3,-1
 53.7598 145.92 l 1,4,-1
 53.7598 230.4 l 1,5,-1
 138.24 230.4 l 1,6,-1
 138.24 202.24 l 1,7,-1
 81.9199 202.24 l 1,8,-1
 81.9199 174.08 l 1,9,-1
 138.24 174.08 l 1,10,-1
 138.24 89.5996 l 1,11,-1
 53.7598 89.5996 l 1,0,-1
EndSplineSet
EndChar

StartChar: six
Encoding: 54 54 25
Width: 166
VWidth: 540
Flags: W
LayerCount: 2
Fore
SplineSet
110.08 117.76 m 1,0,-1
 110.08 145.92 l 1,1,-1
 81.9199 145.92 l 1,2,-1
 81.9199 117.76 l 1,3,-1
 110.08 117.76 l 1,0,-1
53.7598 89.5996 m 1,4,-1
 53.7598 230.4 l 1,5,-1
 138.24 230.4 l 1,6,-1
 138.24 202.24 l 1,7,-1
 81.9199 202.24 l 1,8,-1
 81.9199 174.08 l 1,9,-1
 138.24 174.08 l 1,10,-1
 138.24 89.5996 l 1,11,-1
 53.7598 89.5996 l 1,4,-1
EndSplineSet
EndChar

StartChar: seven
Encoding: 55 55 26
Width: 166
VWidth: 540
Flags: W
LayerCount: 2
Fore
SplineSet
53.7598 89.5996 m 1,0,-1
 53.7598 145.92 l 1,1,-1
 81.9199 145.92 l 1,2,-1
 81.9199 89.5996 l 1,3,-1
 53.7598 89.5996 l 1,0,-1
81.9199 145.92 m 1,4,-1
 81.9199 174.08 l 1,5,-1
 110.08 174.08 l 1,6,-1
 110.08 145.92 l 1,7,-1
 81.9199 145.92 l 1,4,-1
110.08 174.08 m 1,8,-1
 110.08 202.24 l 1,9,-1
 53.7598 202.24 l 1,10,-1
 53.7598 230.4 l 1,11,-1
 138.24 230.4 l 1,12,-1
 138.24 174.08 l 1,13,-1
 110.08 174.08 l 1,8,-1
EndSplineSet
EndChar

StartChar: eight
Encoding: 56 56 27
Width: 166
VWidth: 540
Flags: W
LayerCount: 2
Fore
SplineSet
110.08 117.76 m 1,0,-1
 110.08 145.92 l 1,1,-1
 81.9199 145.92 l 1,2,-1
 81.9199 117.76 l 1,3,-1
 110.08 117.76 l 1,0,-1
110.08 174.08 m 1,4,-1
 110.08 202.24 l 1,5,-1
 81.9199 202.24 l 1,6,-1
 81.9199 174.08 l 1,7,-1
 110.08 174.08 l 1,4,-1
53.7598 89.5996 m 1,8,-1
 53.7598 230.4 l 1,9,-1
 138.24 230.4 l 1,10,-1
 138.24 89.5996 l 1,11,-1
 53.7598 89.5996 l 1,8,-1
EndSplineSet
EndChar

StartChar: nine
Encoding: 57 57 28
Width: 166
VWidth: 540
Flags: W
LayerCount: 2
Fore
SplineSet
110.08 174.08 m 1,0,-1
 110.08 202.24 l 1,1,-1
 81.9199 202.24 l 1,2,-1
 81.9199 174.08 l 1,3,-1
 110.08 174.08 l 1,0,-1
53.7598 89.5996 m 1,4,-1
 53.7598 117.76 l 1,5,-1
 110.08 117.76 l 1,6,-1
 110.08 145.92 l 1,7,-1
 53.7598 145.92 l 1,8,-1
 53.7598 230.4 l 1,9,-1
 138.24 230.4 l 1,10,-1
 138.24 89.5996 l 1,11,-1
 53.7598 89.5996 l 1,4,-1
EndSplineSet
EndChar

StartChar: colon
Encoding: 58 58 29
Width: 74
VWidth: 504
Flags: W
LayerCount: 2
Fore
SplineSet
17.9199 53.7598 m 1,0,-1
 17.9199 81.9199 l 1,1,-1
 46.0801 81.9199 l 1,2,-1
 46.0801 53.7598 l 1,3,-1
 17.9199 53.7598 l 1,0,-1
17.9199 110.08 m 1,4,-1
 17.9199 138.24 l 1,5,-1
 46.0801 138.24 l 1,6,-1
 46.0801 110.08 l 1,7,-1
 17.9199 110.08 l 1,4,-1
EndSplineSet
EndChar

StartChar: semicolon
Encoding: 59 59 30
Width: 120
VWidth: 486
Flags: W
LayerCount: 2
Fore
SplineSet
64 7.67969 m 1,0,-1
 64 35.8398 l 1,1,-1
 35.8398 35.8398 l 1,2,-1
 35.8398 64 l 1,3,-1
 92.1602 64 l 1,4,-1
 92.1602 7.67969 l 1,5,-1
 64 7.67969 l 1,0,-1
35.8398 92.1602 m 1,6,-1
 35.8398 120.32 l 1,7,-1
 64 120.32 l 1,8,-1
 64 92.1602 l 1,9,-1
 35.8398 92.1602 l 1,6,-1
EndSplineSet
EndChar

StartChar: less
Encoding: 60 60 31
Width: 166
VWidth: 540
Flags: W
LayerCount: 2
Fore
SplineSet
110.08 89.5996 m 1,0,-1
 110.08 117.76 l 1,1,-1
 138.24 117.76 l 1,2,-1
 138.24 89.5996 l 1,3,-1
 110.08 89.5996 l 1,0,-1
81.9199 117.76 m 1,4,-1
 81.9199 145.92 l 1,5,-1
 110.08 145.92 l 1,6,-1
 110.08 117.76 l 1,7,-1
 81.9199 117.76 l 1,4,-1
53.7598 145.92 m 1,8,-1
 53.7598 174.08 l 1,9,-1
 81.9199 174.08 l 1,10,-1
 81.9199 145.92 l 1,11,-1
 53.7598 145.92 l 1,8,-1
81.9199 174.08 m 1,12,-1
 81.9199 202.24 l 1,13,-1
 110.08 202.24 l 1,14,-1
 110.08 174.08 l 1,15,-1
 81.9199 174.08 l 1,12,-1
110.08 202.24 m 1,16,-1
 110.08 230.4 l 1,17,-1
 138.24 230.4 l 1,18,-1
 138.24 202.24 l 1,19,-1
 110.08 202.24 l 1,16,-1
EndSplineSet
EndChar

StartChar: equal
Encoding: 61 61 32
Width: 166
VWidth: 540
Flags: W
LayerCount: 2
Fore
SplineSet
53.7598 117.76 m 1,0,-1
 53.7598 145.92 l 1,1,-1
 138.24 145.92 l 1,2,-1
 138.24 117.76 l 1,3,-1
 53.7598 117.76 l 1,0,-1
53.7598 174.08 m 1,4,-1
 53.7598 202.24 l 1,5,-1
 138.24 202.24 l 1,6,-1
 138.24 174.08 l 1,7,-1
 53.7598 174.08 l 1,4,-1
EndSplineSet
EndChar

StartChar: greater
Encoding: 62 62 33
Width: 166
VWidth: 540
Flags: W
LayerCount: 2
Fore
SplineSet
53.7598 89.5996 m 1,0,-1
 53.7598 117.76 l 1,1,-1
 81.9199 117.76 l 1,2,-1
 81.9199 89.5996 l 1,3,-1
 53.7598 89.5996 l 1,0,-1
81.9199 117.76 m 1,4,-1
 81.9199 145.92 l 1,5,-1
 110.08 145.92 l 1,6,-1
 110.08 117.76 l 1,7,-1
 81.9199 117.76 l 1,4,-1
110.08 145.92 m 1,8,-1
 110.08 174.08 l 1,9,-1
 138.24 174.08 l 1,10,-1
 138.24 145.92 l 1,11,-1
 110.08 145.92 l 1,8,-1
81.9199 174.08 m 1,12,-1
 81.9199 202.24 l 1,13,-1
 110.08 202.24 l 1,14,-1
 110.08 174.08 l 1,15,-1
 81.9199 174.08 l 1,12,-1
53.7598 202.24 m 1,16,-1
 53.7598 230.4 l 1,17,-1
 81.9199 230.4 l 1,18,-1
 81.9199 202.24 l 1,19,-1
 53.7598 202.24 l 1,16,-1
EndSplineSet
EndChar

StartChar: question
Encoding: 63 63 34
Width: 166
VWidth: 540
Flags: W
LayerCount: 2
Fore
SplineSet
81.9199 89.5996 m 1,0,-1
 81.9199 117.76 l 1,1,-1
 110.08 117.76 l 1,2,-1
 110.08 89.5996 l 1,3,-1
 81.9199 89.5996 l 1,0,-1
81.9199 145.92 m 1,4,-1
 81.9199 174.08 l 1,5,-1
 110.08 174.08 l 1,6,-1
 110.08 202.24 l 1,7,-1
 53.7598 202.24 l 1,8,-1
 53.7598 230.4 l 1,9,-1
 138.24 230.4 l 1,10,-1
 138.24 145.92 l 1,11,-1
 81.9199 145.92 l 1,4,-1
EndSplineSet
EndChar

StartChar: at
Encoding: 64 64 35
Width: 350
VWidth: 576
Flags: W
LayerCount: 2
Fore
SplineSet
238.08 209.92 m 1,0,-1
 238.08 238.08 l 1,1,-1
 209.92 238.08 l 1,2,-1
 209.92 209.92 l 1,3,-1
 238.08 209.92 l 1,0,-1
125.44 125.44 m 1,4,-1
 125.44 322.56 l 1,5,-1
 322.56 322.56 l 1,6,-1
 322.56 181.76 l 1,7,-1
 181.76 181.76 l 1,8,-1
 181.76 266.24 l 1,9,-1
 266.24 266.24 l 1,10,-1
 266.24 209.92 l 1,11,-1
 294.4 209.92 l 1,12,-1
 294.4 294.4 l 1,13,-1
 153.6 294.4 l 1,14,-1
 153.6 153.6 l 1,15,-1
 322.56 153.6 l 1,16,-1
 322.56 125.44 l 1,17,-1
 125.44 125.44 l 1,4,-1
EndSplineSet
EndChar

StartChar: A
Encoding: 65 65 36
Width: 166
VWidth: 540
Flags: W
LayerCount: 2
Fore
SplineSet
110.08 174.08 m 1,0,-1
 110.08 202.24 l 1,1,-1
 81.9199 202.24 l 1,2,-1
 81.9199 174.08 l 1,3,-1
 110.08 174.08 l 1,0,-1
53.7598 89.5996 m 1,4,-1
 53.7598 230.4 l 1,5,-1
 138.24 230.4 l 1,6,-1
 138.24 89.5996 l 1,7,-1
 110.08 89.5996 l 1,8,-1
 110.08 145.92 l 1,9,-1
 81.9199 145.92 l 1,10,-1
 81.9199 89.5996 l 1,11,-1
 53.7598 89.5996 l 1,4,-1
EndSplineSet
EndChar

StartChar: B
Encoding: 66 66 37
Width: 212
VWidth: 540
Flags: W
LayerCount: 2
Fore
SplineSet
156.16 117.76 m 1,0,-1
 156.16 145.92 l 1,1,-1
 99.8398 145.92 l 1,2,-1
 99.8398 117.76 l 1,3,-1
 156.16 117.76 l 1,0,-1
128 174.08 m 1,4,-1
 128 202.24 l 1,5,-1
 99.8398 202.24 l 1,6,-1
 99.8398 174.08 l 1,7,-1
 128 174.08 l 1,4,-1
71.6797 89.5996 m 1,8,-1
 71.6797 230.4 l 1,9,-1
 156.16 230.4 l 1,10,-1
 156.16 174.08 l 1,11,-1
 184.32 174.08 l 1,12,-1
 184.32 89.5996 l 1,13,-1
 71.6797 89.5996 l 1,8,-1
EndSplineSet
EndChar

StartChar: C
Encoding: 67 67 38
Width: 166
VWidth: 540
Flags: W
LayerCount: 2
Fore
SplineSet
53.7598 89.5996 m 1,0,-1
 53.7598 230.4 l 1,1,-1
 138.24 230.4 l 1,2,-1
 138.24 202.24 l 1,3,-1
 81.9199 202.24 l 1,4,-1
 81.9199 117.76 l 1,5,-1
 138.24 117.76 l 1,6,-1
 138.24 89.5996 l 1,7,-1
 53.7598 89.5996 l 1,0,-1
EndSplineSet
EndChar

StartChar: D
Encoding: 68 68 39
Width: 166
VWidth: 540
Flags: W
LayerCount: 2
Fore
SplineSet
110.08 117.76 m 1,0,-1
 110.08 202.24 l 1,1,-1
 138.24 202.24 l 1,2,-1
 138.24 117.76 l 1,3,-1
 110.08 117.76 l 1,0,-1
53.7598 89.5996 m 1,4,-1
 53.7598 230.4 l 1,5,-1
 110.08 230.4 l 1,6,-1
 110.08 202.24 l 1,7,-1
 81.9199 202.24 l 1,8,-1
 81.9199 117.76 l 1,9,-1
 110.08 117.76 l 1,10,-1
 110.08 89.5996 l 1,11,-1
 53.7598 89.5996 l 1,4,-1
EndSplineSet
EndChar

StartChar: E
Encoding: 69 69 40
Width: 166
VWidth: 540
Flags: W
LayerCount: 2
Fore
SplineSet
53.7598 89.5996 m 1,0,-1
 53.7598 230.4 l 1,1,-1
 138.24 230.4 l 1,2,-1
 138.24 202.24 l 1,3,-1
 81.9199 202.24 l 1,4,-1
 81.9199 174.08 l 1,5,-1
 110.08 174.08 l 1,6,-1
 110.08 145.92 l 1,7,-1
 81.9199 145.92 l 1,8,-1
 81.9199 117.76 l 1,9,-1
 138.24 117.76 l 1,10,-1
 138.24 89.5996 l 1,11,-1
 53.7598 89.5996 l 1,0,-1
EndSplineSet
EndChar

StartChar: F
Encoding: 70 70 41
Width: 166
VWidth: 540
Flags: W
LayerCount: 2
Fore
SplineSet
53.7598 89.5996 m 1,0,-1
 53.7598 230.4 l 1,1,-1
 138.24 230.4 l 1,2,-1
 138.24 202.24 l 1,3,-1
 81.9199 202.24 l 1,4,-1
 81.9199 174.08 l 1,5,-1
 110.08 174.08 l 1,6,-1
 110.08 145.92 l 1,7,-1
 81.9199 145.92 l 1,8,-1
 81.9199 89.5996 l 1,9,-1
 53.7598 89.5996 l 1,0,-1
EndSplineSet
EndChar

StartChar: G
Encoding: 71 71 42
Width: 166
VWidth: 540
Flags: W
LayerCount: 2
Fore
SplineSet
53.7598 89.5996 m 1,0,-1
 53.7598 230.4 l 1,1,-1
 138.24 230.4 l 1,2,-1
 138.24 202.24 l 1,3,-1
 81.9199 202.24 l 1,4,-1
 81.9199 117.76 l 1,5,-1
 110.08 117.76 l 1,6,-1
 110.08 145.92 l 1,7,-1
 138.24 145.92 l 1,8,-1
 138.24 89.5996 l 1,9,-1
 53.7598 89.5996 l 1,0,-1
EndSplineSet
EndChar

StartChar: H
Encoding: 72 72 43
Width: 166
VWidth: 540
Flags: W
LayerCount: 2
Fore
SplineSet
53.7598 89.5996 m 1,0,-1
 53.7598 230.4 l 1,1,-1
 81.9199 230.4 l 1,2,-1
 81.9199 174.08 l 1,3,-1
 110.08 174.08 l 1,4,-1
 110.08 230.4 l 1,5,-1
 138.24 230.4 l 1,6,-1
 138.24 89.5996 l 1,7,-1
 110.08 89.5996 l 1,8,-1
 110.08 145.92 l 1,9,-1
 81.9199 145.92 l 1,10,-1
 81.9199 89.5996 l 1,11,-1
 53.7598 89.5996 l 1,0,-1
EndSplineSet
EndChar

StartChar: I
Encoding: 73 73 44
Width: 166
VWidth: 540
Flags: W
LayerCount: 2
Fore
SplineSet
53.7598 89.5996 m 1,0,-1
 53.7598 117.76 l 1,1,-1
 81.9199 117.76 l 1,2,-1
 81.9199 202.24 l 1,3,-1
 53.7598 202.24 l 1,4,-1
 53.7598 230.4 l 1,5,-1
 138.24 230.4 l 1,6,-1
 138.24 202.24 l 1,7,-1
 110.08 202.24 l 1,8,-1
 110.08 117.76 l 1,9,-1
 138.24 117.76 l 1,10,-1
 138.24 89.5996 l 1,11,-1
 53.7598 89.5996 l 1,0,-1
EndSplineSet
EndChar

StartChar: J
Encoding: 74 74 45
Width: 166
VWidth: 540
Flags: W
LayerCount: 2
Fore
SplineSet
53.7598 89.5996 m 1,0,-1
 53.7598 117.76 l 1,1,-1
 110.08 117.76 l 1,2,-1
 110.08 230.4 l 1,3,-1
 138.24 230.4 l 1,4,-1
 138.24 89.5996 l 1,5,-1
 53.7598 89.5996 l 1,0,-1
EndSplineSet
EndChar

StartChar: K
Encoding: 75 75 46
Width: 166
VWidth: 540
Flags: W
LayerCount: 2
Fore
SplineSet
110.08 89.5996 m 1,0,-1
 110.08 145.92 l 1,1,-1
 138.24 145.92 l 1,2,-1
 138.24 89.5996 l 1,3,-1
 110.08 89.5996 l 1,0,-1
53.7598 89.5996 m 1,4,-1
 53.7598 230.4 l 1,5,-1
 81.9199 230.4 l 1,6,-1
 81.9199 174.08 l 1,7,-1
 110.08 174.08 l 1,8,-1
 110.08 145.92 l 1,9,-1
 81.9199 145.92 l 1,10,-1
 81.9199 89.5996 l 1,11,-1
 53.7598 89.5996 l 1,4,-1
110.08 174.08 m 1,12,-1
 110.08 230.4 l 1,13,-1
 138.24 230.4 l 1,14,-1
 138.24 174.08 l 1,15,-1
 110.08 174.08 l 1,12,-1
EndSplineSet
EndChar

StartChar: L
Encoding: 76 76 47
Width: 166
VWidth: 540
Flags: W
LayerCount: 2
Fore
SplineSet
53.7598 89.5996 m 1,0,-1
 53.7598 230.4 l 1,1,-1
 81.9199 230.4 l 1,2,-1
 81.9199 117.76 l 1,3,-1
 138.24 117.76 l 1,4,-1
 138.24 89.5996 l 1,5,-1
 53.7598 89.5996 l 1,0,-1
EndSplineSet
EndChar

StartChar: M
Encoding: 77 77 48
Width: 258
VWidth: 540
Flags: W
LayerCount: 2
Fore
SplineSet
145.92 145.92 m 1,0,-1
 145.92 174.08 l 1,1,-1
 174.08 174.08 l 1,2,-1
 174.08 145.92 l 1,3,-1
 145.92 145.92 l 1,0,-1
89.5996 89.5996 m 1,4,-1
 89.5996 230.4 l 1,5,-1
 117.76 230.4 l 1,6,-1
 117.76 202.24 l 1,7,-1
 145.92 202.24 l 1,8,-1
 145.92 174.08 l 1,9,-1
 117.76 174.08 l 1,10,-1
 117.76 89.5996 l 1,11,-1
 89.5996 89.5996 l 1,4,-1
202.24 89.5996 m 1,12,-1
 202.24 174.08 l 1,13,-1
 174.08 174.08 l 1,14,-1
 174.08 202.24 l 1,15,-1
 202.24 202.24 l 1,16,-1
 202.24 230.4 l 1,17,-1
 230.4 230.4 l 1,18,-1
 230.4 89.5996 l 1,19,-1
 202.24 89.5996 l 1,12,-1
EndSplineSet
EndChar

StartChar: N
Encoding: 78 78 49
Width: 258
VWidth: 540
Flags: W
LayerCount: 2
Fore
SplineSet
145.92 145.92 m 1,0,-1
 145.92 174.08 l 1,1,-1
 174.08 174.08 l 1,2,-1
 174.08 145.92 l 1,3,-1
 145.92 145.92 l 1,0,-1
89.5996 89.5996 m 1,4,-1
 89.5996 230.4 l 1,5,-1
 117.76 230.4 l 1,6,-1
 117.76 202.24 l 1,7,-1
 145.92 202.24 l 1,8,-1
 145.92 174.08 l 1,9,-1
 117.76 174.08 l 1,10,-1
 117.76 89.5996 l 1,11,-1
 89.5996 89.5996 l 1,4,-1
202.24 89.5996 m 1,12,-1
 202.24 117.76 l 1,13,-1
 174.08 117.76 l 1,14,-1
 174.08 145.92 l 1,15,-1
 202.24 145.92 l 1,16,-1
 202.24 230.4 l 1,17,-1
 230.4 230.4 l 1,18,-1
 230.4 89.5996 l 1,19,-1
 202.24 89.5996 l 1,12,-1
EndSplineSet
EndChar

StartChar: O
Encoding: 79 79 50
Width: 212
VWidth: 540
Flags: W
LayerCount: 2
Fore
SplineSet
156.16 117.76 m 1,0,-1
 156.16 202.24 l 1,1,-1
 99.8398 202.24 l 1,2,-1
 99.8398 117.76 l 1,3,-1
 156.16 117.76 l 1,0,-1
71.6797 89.5996 m 1,4,-1
 71.6797 230.4 l 1,5,-1
 184.32 230.4 l 1,6,-1
 184.32 89.5996 l 1,7,-1
 71.6797 89.5996 l 1,4,-1
EndSplineSet
EndChar

StartChar: P
Encoding: 80 80 51
Width: 166
VWidth: 540
Flags: W
LayerCount: 2
Fore
SplineSet
110.08 174.08 m 1,0,-1
 110.08 202.24 l 1,1,-1
 81.9199 202.24 l 1,2,-1
 81.9199 174.08 l 1,3,-1
 110.08 174.08 l 1,0,-1
53.7598 89.5996 m 1,4,-1
 53.7598 230.4 l 1,5,-1
 138.24 230.4 l 1,6,-1
 138.24 145.92 l 1,7,-1
 81.9199 145.92 l 1,8,-1
 81.9199 89.5996 l 1,9,-1
 53.7598 89.5996 l 1,4,-1
EndSplineSet
EndChar

StartChar: Q
Encoding: 81 81 52
Width: 212
VWidth: 540
Flags: W
LayerCount: 2
Fore
SplineSet
128 117.76 m 1,0,-1
 128 145.92 l 1,1,-1
 156.16 145.92 l 1,2,-1
 156.16 202.24 l 1,3,-1
 99.8398 202.24 l 1,4,-1
 99.8398 117.76 l 1,5,-1
 128 117.76 l 1,0,-1
71.6797 89.5996 m 1,6,-1
 71.6797 230.4 l 1,7,-1
 184.32 230.4 l 1,8,-1
 184.32 89.5996 l 1,9,-1
 71.6797 89.5996 l 1,6,-1
EndSplineSet
EndChar

StartChar: R
Encoding: 82 82 53
Width: 166
VWidth: 540
Flags: W
LayerCount: 2
Fore
SplineSet
110.08 89.5996 m 1,0,-1
 110.08 145.92 l 1,1,-1
 138.24 145.92 l 1,2,-1
 138.24 89.5996 l 1,3,-1
 110.08 89.5996 l 1,0,-1
53.7598 89.5996 m 1,4,-1
 53.7598 230.4 l 1,5,-1
 138.24 230.4 l 1,6,-1
 138.24 174.08 l 1,7,-1
 110.08 174.08 l 1,8,-1
 110.08 202.24 l 1,9,-1
 81.9199 202.24 l 1,10,-1
 81.9199 174.08 l 1,11,-1
 110.08 174.08 l 1,12,-1
 110.08 145.92 l 1,13,-1
 81.9199 145.92 l 1,14,-1
 81.9199 89.5996 l 1,15,-1
 53.7598 89.5996 l 1,4,-1
EndSplineSet
EndChar

StartChar: S
Encoding: 83 83 54
Width: 166
VWidth: 540
Flags: W
LayerCount: 2
Fore
SplineSet
53.7598 89.5996 m 1,0,-1
 53.7598 117.76 l 1,1,-1
 110.08 117.76 l 1,2,-1
 110.08 145.92 l 1,3,-1
 53.7598 145.92 l 1,4,-1
 53.7598 230.4 l 1,5,-1
 138.24 230.4 l 1,6,-1
 138.24 202.24 l 1,7,-1
 81.9199 202.24 l 1,8,-1
 81.9199 174.08 l 1,9,-1
 138.24 174.08 l 1,10,-1
 138.24 89.5996 l 1,11,-1
 53.7598 89.5996 l 1,0,-1
EndSplineSet
EndChar

StartChar: T
Encoding: 84 84 55
Width: 166
VWidth: 540
Flags: W
LayerCount: 2
Fore
SplineSet
81.9199 89.5996 m 1,0,-1
 81.9199 202.24 l 1,1,-1
 53.7598 202.24 l 1,2,-1
 53.7598 230.4 l 1,3,-1
 138.24 230.4 l 1,4,-1
 138.24 202.24 l 1,5,-1
 110.08 202.24 l 1,6,-1
 110.08 89.5996 l 1,7,-1
 81.9199 89.5996 l 1,0,-1
EndSplineSet
EndChar

StartChar: U
Encoding: 85 85 56
Width: 166
VWidth: 540
Flags: W
LayerCount: 2
Fore
SplineSet
53.7598 89.5996 m 1,0,-1
 53.7598 230.4 l 1,1,-1
 81.9199 230.4 l 1,2,-1
 81.9199 117.76 l 1,3,-1
 110.08 117.76 l 1,4,-1
 110.08 230.4 l 1,5,-1
 138.24 230.4 l 1,6,-1
 138.24 89.5996 l 1,7,-1
 53.7598 89.5996 l 1,0,-1
EndSplineSet
EndChar

StartChar: V
Encoding: 86 86 57
Width: 258
VWidth: 540
Flags: W
LayerCount: 2
Fore
SplineSet
145.92 89.5996 m 1,0,-1
 145.92 117.76 l 1,1,-1
 174.08 117.76 l 1,2,-1
 174.08 89.5996 l 1,3,-1
 145.92 89.5996 l 1,0,-1
117.76 117.76 m 1,4,-1
 117.76 174.08 l 1,5,-1
 145.92 174.08 l 1,6,-1
 145.92 117.76 l 1,7,-1
 117.76 117.76 l 1,4,-1
174.08 117.76 m 1,8,-1
 174.08 174.08 l 1,9,-1
 202.24 174.08 l 1,10,-1
 202.24 117.76 l 1,11,-1
 174.08 117.76 l 1,8,-1
89.5996 174.08 m 1,12,-1
 89.5996 230.4 l 1,13,-1
 117.76 230.4 l 1,14,-1
 117.76 174.08 l 1,15,-1
 89.5996 174.08 l 1,12,-1
202.24 174.08 m 1,16,-1
 202.24 230.4 l 1,17,-1
 230.4 230.4 l 1,18,-1
 230.4 174.08 l 1,19,-1
 202.24 174.08 l 1,16,-1
EndSplineSet
EndChar

StartChar: W
Encoding: 87 87 58
Width: 258
VWidth: 540
Flags: W
LayerCount: 2
Fore
SplineSet
89.5996 89.5996 m 1,0,-1
 89.5996 230.4 l 1,1,-1
 117.76 230.4 l 1,2,-1
 117.76 117.76 l 1,3,-1
 145.92 117.76 l 1,4,-1
 145.92 230.4 l 1,5,-1
 174.08 230.4 l 1,6,-1
 174.08 117.76 l 1,7,-1
 202.24 117.76 l 1,8,-1
 202.24 230.4 l 1,9,-1
 230.4 230.4 l 1,10,-1
 230.4 89.5996 l 1,11,-1
 89.5996 89.5996 l 1,0,-1
EndSplineSet
EndChar

StartChar: X
Encoding: 88 88 59
Width: 258
VWidth: 540
Flags: W
LayerCount: 2
Fore
SplineSet
89.5996 89.5996 m 1,0,-1
 89.5996 117.76 l 1,1,-1
 117.76 117.76 l 1,2,-1
 117.76 89.5996 l 1,3,-1
 89.5996 89.5996 l 1,0,-1
202.24 89.5996 m 1,4,-1
 202.24 117.76 l 1,5,-1
 230.4 117.76 l 1,6,-1
 230.4 89.5996 l 1,7,-1
 202.24 89.5996 l 1,4,-1
117.76 117.76 m 1,8,-1
 117.76 145.92 l 1,9,-1
 145.92 145.92 l 1,10,-1
 145.92 117.76 l 1,11,-1
 117.76 117.76 l 1,8,-1
174.08 117.76 m 1,12,-1
 174.08 145.92 l 1,13,-1
 202.24 145.92 l 1,14,-1
 202.24 117.76 l 1,15,-1
 174.08 117.76 l 1,12,-1
145.92 145.92 m 1,16,-1
 145.92 174.08 l 1,17,-1
 174.08 174.08 l 1,18,-1
 174.08 145.92 l 1,19,-1
 145.92 145.92 l 1,16,-1
117.76 174.08 m 1,20,-1
 117.76 202.24 l 1,21,-1
 145.92 202.24 l 1,22,-1
 145.92 174.08 l 1,23,-1
 117.76 174.08 l 1,20,-1
174.08 174.08 m 1,24,-1
 174.08 202.24 l 1,25,-1
 202.24 202.24 l 1,26,-1
 202.24 174.08 l 1,27,-1
 174.08 174.08 l 1,24,-1
89.5996 202.24 m 1,28,-1
 89.5996 230.4 l 1,29,-1
 117.76 230.4 l 1,30,-1
 117.76 202.24 l 1,31,-1
 89.5996 202.24 l 1,28,-1
202.24 202.24 m 1,32,-1
 202.24 230.4 l 1,33,-1
 230.4 230.4 l 1,34,-1
 230.4 202.24 l 1,35,-1
 202.24 202.24 l 1,32,-1
EndSplineSet
EndChar

StartChar: Y
Encoding: 89 89 60
Width: 166
VWidth: 540
Flags: W
LayerCount: 2
Fore
SplineSet
81.9199 89.5996 m 1,0,-1
 81.9199 145.92 l 1,1,-1
 53.7598 145.92 l 1,2,-1
 53.7598 230.4 l 1,3,-1
 81.9199 230.4 l 1,4,-1
 81.9199 174.08 l 1,5,-1
 110.08 174.08 l 1,6,-1
 110.08 230.4 l 1,7,-1
 138.24 230.4 l 1,8,-1
 138.24 145.92 l 1,9,-1
 110.08 145.92 l 1,10,-1
 110.08 89.5996 l 1,11,-1
 81.9199 89.5996 l 1,0,-1
EndSplineSet
EndChar

StartChar: Z
Encoding: 90 90 61
Width: 166
VWidth: 540
Flags: W
LayerCount: 2
Fore
SplineSet
53.7598 89.5996 m 1,0,-1
 53.7598 145.92 l 1,1,-1
 81.9199 145.92 l 1,2,-1
 81.9199 117.76 l 1,3,-1
 138.24 117.76 l 1,4,-1
 138.24 89.5996 l 1,5,-1
 53.7598 89.5996 l 1,0,-1
81.9199 145.92 m 1,6,-1
 81.9199 174.08 l 1,7,-1
 110.08 174.08 l 1,8,-1
 110.08 145.92 l 1,9,-1
 81.9199 145.92 l 1,6,-1
110.08 174.08 m 1,10,-1
 110.08 202.24 l 1,11,-1
 53.7598 202.24 l 1,12,-1
 53.7598 230.4 l 1,13,-1
 138.24 230.4 l 1,14,-1
 138.24 174.08 l 1,15,-1
 110.08 174.08 l 1,10,-1
EndSplineSet
EndChar

StartChar: bracketleft
Encoding: 91 91 62
Width: 120
VWidth: 540
Flags: W
LayerCount: 2
Fore
SplineSet
35.8398 89.5996 m 1,0,-1
 35.8398 230.4 l 1,1,-1
 92.1602 230.4 l 1,2,-1
 92.1602 202.24 l 1,3,-1
 64 202.24 l 1,4,-1
 64 117.76 l 1,5,-1
 92.1602 117.76 l 1,6,-1
 92.1602 89.5996 l 1,7,-1
 35.8398 89.5996 l 1,0,-1
EndSplineSet
EndChar

StartChar: backslash
Encoding: 92 92 63
Width: 258
VWidth: 540
Flags: W
LayerCount: 2
Fore
SplineSet
202.24 89.5996 m 1,0,-1
 202.24 117.76 l 1,1,-1
 230.4 117.76 l 1,2,-1
 230.4 89.5996 l 1,3,-1
 202.24 89.5996 l 1,0,-1
174.08 117.76 m 1,4,-1
 174.08 145.92 l 1,5,-1
 202.24 145.92 l 1,6,-1
 202.24 117.76 l 1,7,-1
 174.08 117.76 l 1,4,-1
145.92 145.92 m 1,8,-1
 145.92 174.08 l 1,9,-1
 174.08 174.08 l 1,10,-1
 174.08 145.92 l 1,11,-1
 145.92 145.92 l 1,8,-1
117.76 174.08 m 1,12,-1
 117.76 202.24 l 1,13,-1
 145.92 202.24 l 1,14,-1
 145.92 174.08 l 1,15,-1
 117.76 174.08 l 1,12,-1
89.5996 202.24 m 1,16,-1
 89.5996 230.4 l 1,17,-1
 117.76 230.4 l 1,18,-1
 117.76 202.24 l 1,19,-1
 89.5996 202.24 l 1,16,-1
EndSplineSet
EndChar

StartChar: bracketright
Encoding: 93 93 64
Width: 120
VWidth: 540
Flags: W
LayerCount: 2
Fore
SplineSet
35.8398 89.5996 m 1,0,-1
 35.8398 117.76 l 1,1,-1
 64 117.76 l 1,2,-1
 64 202.24 l 1,3,-1
 35.8398 202.24 l 1,4,-1
 35.8398 230.4 l 1,5,-1
 92.1602 230.4 l 1,6,-1
 92.1602 89.5996 l 1,7,-1
 35.8398 89.5996 l 1,0,-1
EndSplineSet
EndChar

StartChar: asciicircum
Encoding: 94 94 65
Width: 166
VWidth: 593
Flags: W
LayerCount: 2
Fore
SplineSet
53.7598 227.84 m 1,0,-1
 53.7598 256 l 1,1,-1
 81.9199 256 l 1,2,-1
 81.9199 227.84 l 1,3,-1
 53.7598 227.84 l 1,0,-1
110.08 227.84 m 1,4,-1
 110.08 256 l 1,5,-1
 138.24 256 l 1,6,-1
 138.24 227.84 l 1,7,-1
 110.08 227.84 l 1,4,-1
81.9199 256 m 1,8,-1
 81.9199 284.16 l 1,9,-1
 110.08 284.16 l 1,10,-1
 110.08 256 l 1,11,-1
 81.9199 256 l 1,8,-1
EndSplineSet
EndChar

StartChar: underscore
Encoding: 95 95 66
Width: 258
VWidth: 468
Flags: W
LayerCount: 2
Fore
SplineSet
89.5996 17.9199 m 1,0,-1
 89.5996 46.0801 l 1,1,-1
 230.4 46.0801 l 1,2,-1
 230.4 17.9199 l 1,3,-1
 89.5996 17.9199 l 1,0,-1
EndSplineSet
EndChar

StartChar: grave
Encoding: 96 96 67
Width: 120
VWidth: 593
Flags: W
LayerCount: 2
Fore
SplineSet
64 227.84 m 1,0,-1
 64 256 l 1,1,-1
 92.1602 256 l 1,2,-1
 92.1602 227.84 l 1,3,-1
 64 227.84 l 1,0,-1
35.8398 256 m 1,4,-1
 35.8398 284.16 l 1,5,-1
 64 284.16 l 1,6,-1
 64 256 l 1,7,-1
 35.8398 256 l 1,4,-1
EndSplineSet
EndChar

StartChar: a
Encoding: 97 97 68
Width: 166
VWidth: 540
Flags: W
LayerCount: 2
Fore
SplineSet
110.08 117.76 m 1,0,-1
 110.08 145.92 l 1,1,-1
 81.9199 145.92 l 1,2,-1
 81.9199 117.76 l 1,3,-1
 110.08 117.76 l 1,0,-1
53.7598 89.5996 m 1,4,-1
 53.7598 174.08 l 1,5,-1
 110.08 174.08 l 1,6,-1
 110.08 202.24 l 1,7,-1
 53.7598 202.24 l 1,8,-1
 53.7598 230.4 l 1,9,-1
 138.24 230.4 l 1,10,-1
 138.24 89.5996 l 1,11,-1
 53.7598 89.5996 l 1,4,-1
EndSplineSet
EndChar

StartChar: b
Encoding: 98 98 69
Width: 166
VWidth: 576
Flags: W
LayerCount: 2
Fore
SplineSet
110.08 153.6 m 1,0,-1
 110.08 238.08 l 1,1,-1
 81.9199 238.08 l 1,2,-1
 81.9199 153.6 l 1,3,-1
 110.08 153.6 l 1,0,-1
53.7598 125.44 m 1,4,-1
 53.7598 322.56 l 1,5,-1
 81.9199 322.56 l 1,6,-1
 81.9199 266.24 l 1,7,-1
 138.24 266.24 l 1,8,-1
 138.24 125.44 l 1,9,-1
 53.7598 125.44 l 1,4,-1
EndSplineSet
EndChar

StartChar: c
Encoding: 99 99 70
Width: 166
VWidth: 540
Flags: W
LayerCount: 2
Fore
SplineSet
53.7598 89.5996 m 1,0,-1
 53.7598 230.4 l 1,1,-1
 138.24 230.4 l 1,2,-1
 138.24 202.24 l 1,3,-1
 81.9199 202.24 l 1,4,-1
 81.9199 117.76 l 1,5,-1
 138.24 117.76 l 1,6,-1
 138.24 89.5996 l 1,7,-1
 53.7598 89.5996 l 1,0,-1
EndSplineSet
EndChar

StartChar: d
Encoding: 100 100 71
Width: 166
VWidth: 576
Flags: W
LayerCount: 2
Fore
SplineSet
110.08 153.6 m 1,0,-1
 110.08 238.08 l 1,1,-1
 81.9199 238.08 l 1,2,-1
 81.9199 153.6 l 1,3,-1
 110.08 153.6 l 1,0,-1
53.7598 125.44 m 1,4,-1
 53.7598 266.24 l 1,5,-1
 110.08 266.24 l 1,6,-1
 110.08 322.56 l 1,7,-1
 138.24 322.56 l 1,8,-1
 138.24 125.44 l 1,9,-1
 53.7598 125.44 l 1,4,-1
EndSplineSet
EndChar

StartChar: e
Encoding: 101 101 72
Width: 166
VWidth: 540
Flags: W
LayerCount: 2
Fore
SplineSet
110.08 174.08 m 1,0,-1
 110.08 202.24 l 1,1,-1
 81.9199 202.24 l 1,2,-1
 81.9199 174.08 l 1,3,-1
 110.08 174.08 l 1,0,-1
53.7598 89.5996 m 1,4,-1
 53.7598 230.4 l 1,5,-1
 138.24 230.4 l 1,6,-1
 138.24 145.92 l 1,7,-1
 81.9199 145.92 l 1,8,-1
 81.9199 117.76 l 1,9,-1
 138.24 117.76 l 1,10,-1
 138.24 89.5996 l 1,11,-1
 53.7598 89.5996 l 1,4,-1
EndSplineSet
EndChar

StartChar: f
Encoding: 102 102 73
Width: 166
VWidth: 576
Flags: W
LayerCount: 2
Fore
SplineSet
81.9199 125.44 m 1,0,-1
 81.9199 209.92 l 1,1,-1
 53.7598 209.92 l 1,2,-1
 53.7598 238.08 l 1,3,-1
 81.9199 238.08 l 1,4,-1
 81.9199 322.56 l 1,5,-1
 138.24 322.56 l 1,6,-1
 138.24 294.4 l 1,7,-1
 110.08 294.4 l 1,8,-1
 110.08 238.08 l 1,9,-1
 138.24 238.08 l 1,10,-1
 138.24 209.92 l 1,11,-1
 110.08 209.92 l 1,12,-1
 110.08 125.44 l 1,13,-1
 81.9199 125.44 l 1,0,-1
EndSplineSet
EndChar

StartChar: g
Encoding: 103 103 74
Width: 166
VWidth: 504
Flags: W
LayerCount: 2
Fore
SplineSet
110.08 81.9199 m 1,0,-1
 110.08 166.4 l 1,1,-1
 81.9199 166.4 l 1,2,-1
 81.9199 81.9199 l 1,3,-1
 110.08 81.9199 l 1,0,-1
53.7598 -2.55957 m 1,4,-1
 53.7598 25.5996 l 1,5,-1
 110.08 25.5996 l 1,6,-1
 110.08 53.7598 l 1,7,-1
 53.7598 53.7598 l 1,8,-1
 53.7598 194.56 l 1,9,-1
 138.24 194.56 l 1,10,-1
 138.24 -2.55957 l 1,11,-1
 53.7598 -2.55957 l 1,4,-1
EndSplineSet
EndChar

StartChar: h
Encoding: 104 104 75
Width: 166
VWidth: 576
Flags: W
LayerCount: 2
Fore
SplineSet
53.7598 125.44 m 1,0,-1
 53.7598 322.56 l 1,1,-1
 81.9199 322.56 l 1,2,-1
 81.9199 266.24 l 1,3,-1
 138.24 266.24 l 1,4,-1
 138.24 125.44 l 1,5,-1
 110.08 125.44 l 1,6,-1
 110.08 238.08 l 1,7,-1
 81.9199 238.08 l 1,8,-1
 81.9199 125.44 l 1,9,-1
 53.7598 125.44 l 1,0,-1
EndSplineSet
EndChar

StartChar: i
Encoding: 105 105 76
Width: 138
VWidth: 576
Flags: W
LayerCount: 2
Fore
SplineSet
81.9199 125.44 m 1,0,-1
 81.9199 266.24 l 1,1,-1
 110.08 266.24 l 1,2,-1
 110.08 125.44 l 1,3,-1
 81.9199 125.44 l 1,0,-1
81.9199 294.4 m 1,4,-1
 81.9199 322.56 l 1,5,-1
 110.08 322.56 l 1,6,-1
 110.08 294.4 l 1,7,-1
 81.9199 294.4 l 1,4,-1
EndSplineSet
EndChar

StartChar: j
Encoding: 106 106 77
Width: 166
VWidth: 540
Flags: W
LayerCount: 2
Fore
SplineSet
53.7598 33.2803 m 1,0,-1
 53.7598 61.4404 l 1,1,-1
 110.08 61.4404 l 1,2,-1
 110.08 230.4 l 1,3,-1
 138.24 230.4 l 1,4,-1
 138.24 33.2803 l 1,5,-1
 53.7598 33.2803 l 1,0,-1
110.08 258.56 m 1,6,-1
 110.08 286.72 l 1,7,-1
 138.24 286.72 l 1,8,-1
 138.24 258.56 l 1,9,-1
 110.08 258.56 l 1,6,-1
EndSplineSet
EndChar

StartChar: k
Encoding: 107 107 78
Width: 166
VWidth: 576
Flags: W
LayerCount: 2
Fore
SplineSet
110.08 125.44 m 1,0,-1
 110.08 181.76 l 1,1,-1
 138.24 181.76 l 1,2,-1
 138.24 125.44 l 1,3,-1
 110.08 125.44 l 1,0,-1
110.08 209.92 m 1,4,-1
 110.08 266.24 l 1,5,-1
 138.24 266.24 l 1,6,-1
 138.24 209.92 l 1,7,-1
 110.08 209.92 l 1,4,-1
53.7598 125.44 m 1,8,-1
 53.7598 322.56 l 1,9,-1
 81.9199 322.56 l 1,10,-1
 81.9199 209.92 l 1,11,-1
 110.08 209.92 l 1,12,-1
 110.08 181.76 l 1,13,-1
 81.9199 181.76 l 1,14,-1
 81.9199 125.44 l 1,15,-1
 53.7598 125.44 l 1,8,-1
EndSplineSet
EndChar

StartChar: l
Encoding: 108 108 79
Width: 74
VWidth: 576
Flags: W
LayerCount: 2
Fore
SplineSet
17.9199 125.44 m 1,0,-1
 17.9199 322.56 l 1,1,-1
 46.0801 322.56 l 1,2,-1
 46.0801 125.44 l 1,3,-1
 17.9199 125.44 l 1,0,-1
EndSplineSet
EndChar

StartChar: m
Encoding: 109 109 80
Width: 258
VWidth: 540
Flags: W
LayerCount: 2
Fore
SplineSet
89.5996 89.5996 m 1,0,-1
 89.5996 230.4 l 1,1,-1
 230.4 230.4 l 1,2,-1
 230.4 89.5996 l 1,3,-1
 202.24 89.5996 l 1,4,-1
 202.24 202.24 l 1,5,-1
 174.08 202.24 l 1,6,-1
 174.08 89.5996 l 1,7,-1
 145.92 89.5996 l 1,8,-1
 145.92 202.24 l 1,9,-1
 117.76 202.24 l 1,10,-1
 117.76 89.5996 l 1,11,-1
 89.5996 89.5996 l 1,0,-1
EndSplineSet
EndChar

StartChar: n
Encoding: 110 110 81
Width: 166
VWidth: 540
Flags: W
LayerCount: 2
Fore
SplineSet
53.7598 89.5996 m 1,0,-1
 53.7598 230.4 l 1,1,-1
 138.24 230.4 l 1,2,-1
 138.24 89.5996 l 1,3,-1
 110.08 89.5996 l 1,4,-1
 110.08 202.24 l 1,5,-1
 81.9199 202.24 l 1,6,-1
 81.9199 89.5996 l 1,7,-1
 53.7598 89.5996 l 1,0,-1
EndSplineSet
EndChar

StartChar: o
Encoding: 111 111 82
Width: 166
VWidth: 540
Flags: W
LayerCount: 2
Fore
SplineSet
110.08 117.76 m 1,0,-1
 110.08 202.24 l 1,1,-1
 81.9199 202.24 l 1,2,-1
 81.9199 117.76 l 1,3,-1
 110.08 117.76 l 1,0,-1
53.7598 89.5996 m 1,4,-1
 53.7598 230.4 l 1,5,-1
 138.24 230.4 l 1,6,-1
 138.24 89.5996 l 1,7,-1
 53.7598 89.5996 l 1,4,-1
EndSplineSet
EndChar

StartChar: p
Encoding: 112 112 83
Width: 166
VWidth: 504
Flags: W
LayerCount: 2
Fore
SplineSet
110.08 81.9199 m 1,0,-1
 110.08 166.4 l 1,1,-1
 81.9199 166.4 l 1,2,-1
 81.9199 81.9199 l 1,3,-1
 110.08 81.9199 l 1,0,-1
53.7598 -2.55957 m 1,4,-1
 53.7598 194.56 l 1,5,-1
 138.24 194.56 l 1,6,-1
 138.24 53.7598 l 1,7,-1
 81.9199 53.7598 l 1,8,-1
 81.9199 -2.55957 l 1,9,-1
 53.7598 -2.55957 l 1,4,-1
EndSplineSet
EndChar

StartChar: q
Encoding: 113 113 84
Width: 166
VWidth: 504
Flags: W
LayerCount: 2
Fore
SplineSet
110.08 81.9199 m 1,0,-1
 110.08 166.4 l 1,1,-1
 81.9199 166.4 l 1,2,-1
 81.9199 81.9199 l 1,3,-1
 110.08 81.9199 l 1,0,-1
110.08 -2.55957 m 1,4,-1
 110.08 53.7598 l 1,5,-1
 53.7598 53.7598 l 1,6,-1
 53.7598 194.56 l 1,7,-1
 138.24 194.56 l 1,8,-1
 138.24 -2.55957 l 1,9,-1
 110.08 -2.55957 l 1,4,-1
EndSplineSet
EndChar

StartChar: r
Encoding: 114 114 85
Width: 166
VWidth: 540
Flags: W
LayerCount: 2
Fore
SplineSet
53.7598 89.5996 m 1,0,-1
 53.7598 230.4 l 1,1,-1
 138.24 230.4 l 1,2,-1
 138.24 202.24 l 1,3,-1
 81.9199 202.24 l 1,4,-1
 81.9199 89.5996 l 1,5,-1
 53.7598 89.5996 l 1,0,-1
EndSplineSet
EndChar

StartChar: s
Encoding: 115 115 86
Width: 166
VWidth: 540
Flags: W
LayerCount: 2
Fore
SplineSet
53.7598 89.5996 m 1,0,-1
 53.7598 117.76 l 1,1,-1
 110.08 117.76 l 1,2,-1
 110.08 145.92 l 1,3,-1
 53.7598 145.92 l 1,4,-1
 53.7598 230.4 l 1,5,-1
 138.24 230.4 l 1,6,-1
 138.24 202.24 l 1,7,-1
 81.9199 202.24 l 1,8,-1
 81.9199 174.08 l 1,9,-1
 138.24 174.08 l 1,10,-1
 138.24 89.5996 l 1,11,-1
 53.7598 89.5996 l 1,0,-1
EndSplineSet
EndChar

StartChar: t
Encoding: 116 116 87
Width: 166
VWidth: 576
Flags: W
LayerCount: 2
Fore
SplineSet
53.7598 125.44 m 1,0,-1
 53.7598 322.56 l 1,1,-1
 81.9199 322.56 l 1,2,-1
 81.9199 266.24 l 1,3,-1
 138.24 266.24 l 1,4,-1
 138.24 238.08 l 1,5,-1
 81.9199 238.08 l 1,6,-1
 81.9199 153.6 l 1,7,-1
 138.24 153.6 l 1,8,-1
 138.24 125.44 l 1,9,-1
 53.7598 125.44 l 1,0,-1
EndSplineSet
EndChar

StartChar: u
Encoding: 117 117 88
Width: 166
VWidth: 540
Flags: W
LayerCount: 2
Fore
SplineSet
53.7598 89.5996 m 1,0,-1
 53.7598 230.4 l 1,1,-1
 81.9199 230.4 l 1,2,-1
 81.9199 117.76 l 1,3,-1
 110.08 117.76 l 1,4,-1
 110.08 230.4 l 1,5,-1
 138.24 230.4 l 1,6,-1
 138.24 89.5996 l 1,7,-1
 53.7598 89.5996 l 1,0,-1
EndSplineSet
EndChar

StartChar: v
Encoding: 118 118 89
Width: 258
VWidth: 540
Flags: W
LayerCount: 2
Fore
SplineSet
145.92 89.5996 m 1,0,-1
 145.92 117.76 l 1,1,-1
 174.08 117.76 l 1,2,-1
 174.08 89.5996 l 1,3,-1
 145.92 89.5996 l 1,0,-1
117.76 117.76 m 1,4,-1
 117.76 174.08 l 1,5,-1
 145.92 174.08 l 1,6,-1
 145.92 117.76 l 1,7,-1
 117.76 117.76 l 1,4,-1
174.08 117.76 m 1,8,-1
 174.08 174.08 l 1,9,-1
 202.24 174.08 l 1,10,-1
 202.24 117.76 l 1,11,-1
 174.08 117.76 l 1,8,-1
89.5996 174.08 m 1,12,-1
 89.5996 230.4 l 1,13,-1
 117.76 230.4 l 1,14,-1
 117.76 174.08 l 1,15,-1
 89.5996 174.08 l 1,12,-1
202.24 174.08 m 1,16,-1
 202.24 230.4 l 1,17,-1
 230.4 230.4 l 1,18,-1
 230.4 174.08 l 1,19,-1
 202.24 174.08 l 1,16,-1
EndSplineSet
EndChar

StartChar: w
Encoding: 119 119 90
Width: 258
VWidth: 540
Flags: W
LayerCount: 2
Fore
SplineSet
89.5996 89.5996 m 1,0,-1
 89.5996 230.4 l 1,1,-1
 117.76 230.4 l 1,2,-1
 117.76 117.76 l 1,3,-1
 145.92 117.76 l 1,4,-1
 145.92 230.4 l 1,5,-1
 174.08 230.4 l 1,6,-1
 174.08 117.76 l 1,7,-1
 202.24 117.76 l 1,8,-1
 202.24 230.4 l 1,9,-1
 230.4 230.4 l 1,10,-1
 230.4 89.5996 l 1,11,-1
 89.5996 89.5996 l 1,0,-1
EndSplineSet
EndChar

StartChar: x
Encoding: 120 120 91
Width: 258
VWidth: 540
Flags: W
LayerCount: 2
Fore
SplineSet
89.5996 89.5996 m 1,0,-1
 89.5996 117.76 l 1,1,-1
 117.76 117.76 l 1,2,-1
 117.76 89.5996 l 1,3,-1
 89.5996 89.5996 l 1,0,-1
202.24 89.5996 m 1,4,-1
 202.24 117.76 l 1,5,-1
 230.4 117.76 l 1,6,-1
 230.4 89.5996 l 1,7,-1
 202.24 89.5996 l 1,4,-1
117.76 117.76 m 1,8,-1
 117.76 145.92 l 1,9,-1
 145.92 145.92 l 1,10,-1
 145.92 117.76 l 1,11,-1
 117.76 117.76 l 1,8,-1
174.08 117.76 m 1,12,-1
 174.08 145.92 l 1,13,-1
 202.24 145.92 l 1,14,-1
 202.24 117.76 l 1,15,-1
 174.08 117.76 l 1,12,-1
145.92 145.92 m 1,16,-1
 145.92 174.08 l 1,17,-1
 174.08 174.08 l 1,18,-1
 174.08 145.92 l 1,19,-1
 145.92 145.92 l 1,16,-1
117.76 174.08 m 1,20,-1
 117.76 202.24 l 1,21,-1
 145.92 202.24 l 1,22,-1
 145.92 174.08 l 1,23,-1
 117.76 174.08 l 1,20,-1
174.08 174.08 m 1,24,-1
 174.08 202.24 l 1,25,-1
 202.24 202.24 l 1,26,-1
 202.24 174.08 l 1,27,-1
 174.08 174.08 l 1,24,-1
89.5996 202.24 m 1,28,-1
 89.5996 230.4 l 1,29,-1
 117.76 230.4 l 1,30,-1
 117.76 202.24 l 1,31,-1
 89.5996 202.24 l 1,28,-1
202.24 202.24 m 1,32,-1
 202.24 230.4 l 1,33,-1
 230.4 230.4 l 1,34,-1
 230.4 202.24 l 1,35,-1
 202.24 202.24 l 1,32,-1
EndSplineSet
EndChar

StartChar: y
Encoding: 121 121 92
Width: 166
VWidth: 504
Flags: W
LayerCount: 2
Fore
SplineSet
53.7598 -2.55957 m 1,0,-1
 53.7598 25.5996 l 1,1,-1
 110.08 25.5996 l 1,2,-1
 110.08 53.7598 l 1,3,-1
 53.7598 53.7598 l 1,4,-1
 53.7598 194.56 l 1,5,-1
 81.9199 194.56 l 1,6,-1
 81.9199 81.9199 l 1,7,-1
 110.08 81.9199 l 1,8,-1
 110.08 194.56 l 1,9,-1
 138.24 194.56 l 1,10,-1
 138.24 -2.55957 l 1,11,-1
 53.7598 -2.55957 l 1,0,-1
EndSplineSet
EndChar

StartChar: z
Encoding: 122 122 93
Width: 166
VWidth: 540
Flags: W
LayerCount: 2
Fore
SplineSet
53.7598 89.5996 m 1,0,-1
 53.7598 145.92 l 1,1,-1
 81.9199 145.92 l 1,2,-1
 81.9199 117.76 l 1,3,-1
 138.24 117.76 l 1,4,-1
 138.24 89.5996 l 1,5,-1
 53.7598 89.5996 l 1,0,-1
81.9199 145.92 m 1,6,-1
 81.9199 174.08 l 1,7,-1
 110.08 174.08 l 1,8,-1
 110.08 145.92 l 1,9,-1
 81.9199 145.92 l 1,6,-1
110.08 174.08 m 1,10,-1
 110.08 202.24 l 1,11,-1
 53.7598 202.24 l 1,12,-1
 53.7598 230.4 l 1,13,-1
 138.24 230.4 l 1,14,-1
 138.24 174.08 l 1,15,-1
 110.08 174.08 l 1,10,-1
EndSplineSet
EndChar

StartChar: braceleft
Encoding: 123 123 94
Width: 166
VWidth: 540
Flags: W
LayerCount: 2
Fore
SplineSet
81.9199 89.5996 m 1,0,-1
 81.9199 145.92 l 1,1,-1
 110.08 145.92 l 1,2,-1
 110.08 117.76 l 1,3,-1
 138.24 117.76 l 1,4,-1
 138.24 89.5996 l 1,5,-1
 81.9199 89.5996 l 1,0,-1
53.7598 145.92 m 1,6,-1
 53.7598 174.08 l 1,7,-1
 81.9199 174.08 l 1,8,-1
 81.9199 145.92 l 1,9,-1
 53.7598 145.92 l 1,6,-1
81.9199 174.08 m 1,10,-1
 81.9199 230.4 l 1,11,-1
 138.24 230.4 l 1,12,-1
 138.24 202.24 l 1,13,-1
 110.08 202.24 l 1,14,-1
 110.08 174.08 l 1,15,-1
 81.9199 174.08 l 1,10,-1
EndSplineSet
EndChar

StartChar: bar
Encoding: 124 124 95
Width: 74
VWidth: 540
Flags: W
LayerCount: 2
Fore
SplineSet
17.9199 89.5996 m 1,0,-1
 17.9199 230.4 l 1,1,-1
 46.0801 230.4 l 1,2,-1
 46.0801 89.5996 l 1,3,-1
 17.9199 89.5996 l 1,0,-1
EndSplineSet
EndChar

StartChar: braceright
Encoding: 125 125 96
Width: 166
VWidth: 540
Flags: W
LayerCount: 2
Fore
SplineSet
53.7598 89.5996 m 1,0,-1
 53.7598 117.76 l 1,1,-1
 81.9199 117.76 l 1,2,-1
 81.9199 145.92 l 1,3,-1
 110.08 145.92 l 1,4,-1
 110.08 89.5996 l 1,5,-1
 53.7598 89.5996 l 1,0,-1
110.08 145.92 m 1,6,-1
 110.08 174.08 l 1,7,-1
 138.24 174.08 l 1,8,-1
 138.24 145.92 l 1,9,-1
 110.08 145.92 l 1,6,-1
81.9199 174.08 m 1,10,-1
 81.9199 202.24 l 1,11,-1
 53.7598 202.24 l 1,12,-1
 53.7598 230.4 l 1,13,-1
 110.08 230.4 l 1,14,-1
 110.08 174.08 l 1,15,-1
 81.9199 174.08 l 1,10,-1
EndSplineSet
EndChar

StartChar: asciitilde
Encoding: 126 126 97
Width: 258
VWidth: 540
Flags: W
LayerCount: 2
Fore
SplineSet
89.5996 117.76 m 1,0,-1
 89.5996 202.24 l 1,1,-1
 174.08 202.24 l 1,2,-1
 174.08 145.92 l 1,3,-1
 202.24 145.92 l 1,4,-1
 202.24 202.24 l 1,5,-1
 230.4 202.24 l 1,6,-1
 230.4 117.76 l 1,7,-1
 145.92 117.76 l 1,8,-1
 145.92 174.08 l 1,9,-1
 117.76 174.08 l 1,10,-1
 117.76 117.76 l 1,11,-1
 89.5996 117.76 l 1,0,-1
EndSplineSet
EndChar

StartChar: exclamdown
Encoding: 161 161 98
Width: 138
VWidth: 396
Flags: W
LayerCount: 2
Fore
SplineSet
81.9199 -166.4 m 1,0,-1
 81.9199 -81.9199 l 1,1,-1
 110.08 -81.9199 l 1,2,-1
 110.08 -166.4 l 1,3,-1
 81.9199 -166.4 l 1,0,-1
81.9199 -53.7598 m 1,4,-1
 81.9199 -25.5996 l 1,5,-1
 110.08 -25.5996 l 1,6,-1
 110.08 -53.7598 l 1,7,-1
 81.9199 -53.7598 l 1,4,-1
EndSplineSet
EndChar

StartChar: cent
Encoding: 162 162 99
Width: 166
VWidth: 540
Flags: W
LayerCount: 2
Fore
SplineSet
81.9199 89.5996 m 1,0,-1
 81.9199 117.76 l 1,1,-1
 53.7598 117.76 l 1,2,-1
 53.7598 202.24 l 1,3,-1
 81.9199 202.24 l 1,4,-1
 81.9199 230.4 l 1,5,-1
 110.08 230.4 l 1,6,-1
 110.08 202.24 l 1,7,-1
 138.24 202.24 l 1,8,-1
 138.24 174.08 l 1,9,-1
 110.08 174.08 l 1,10,-1
 110.08 145.92 l 1,11,-1
 138.24 145.92 l 1,12,-1
 138.24 117.76 l 1,13,-1
 110.08 117.76 l 1,14,-1
 110.08 89.5996 l 1,15,-1
 81.9199 89.5996 l 1,0,-1
EndSplineSet
EndChar

StartChar: sterling
Encoding: 163 163 100
Width: 212
VWidth: 540
Flags: W
LayerCount: 2
Fore
SplineSet
71.6797 89.5996 m 1,0,-1
 71.6797 117.76 l 1,1,-1
 99.8398 117.76 l 1,2,-1
 99.8398 230.4 l 1,3,-1
 184.32 230.4 l 1,4,-1
 184.32 202.24 l 1,5,-1
 128 202.24 l 1,6,-1
 128 174.08 l 1,7,-1
 184.32 174.08 l 1,8,-1
 184.32 145.92 l 1,9,-1
 128 145.92 l 1,10,-1
 128 117.76 l 1,11,-1
 184.32 117.76 l 1,12,-1
 184.32 89.5996 l 1,13,-1
 71.6797 89.5996 l 1,0,-1
EndSplineSet
EndChar

StartChar: currency
Encoding: 164 164 101
Width: 212
VWidth: 558
Flags: W
LayerCount: 2
Fore
SplineSet
71.6797 135.68 m 1,0,-1
 71.6797 163.84 l 1,1,-1
 99.8398 163.84 l 1,2,-1
 99.8398 135.68 l 1,3,-1
 71.6797 135.68 l 1,0,-1
156.16 135.68 m 1,4,-1
 156.16 163.84 l 1,5,-1
 184.32 163.84 l 1,6,-1
 184.32 135.68 l 1,7,-1
 156.16 135.68 l 1,4,-1
99.8398 163.84 m 1,8,-1
 99.8398 220.16 l 1,9,-1
 156.16 220.16 l 1,10,-1
 156.16 163.84 l 1,11,-1
 99.8398 163.84 l 1,8,-1
71.6797 220.16 m 1,12,-1
 71.6797 248.32 l 1,13,-1
 99.8398 248.32 l 1,14,-1
 99.8398 220.16 l 1,15,-1
 71.6797 220.16 l 1,12,-1
156.16 220.16 m 1,16,-1
 156.16 248.32 l 1,17,-1
 184.32 248.32 l 1,18,-1
 184.32 220.16 l 1,19,-1
 156.16 220.16 l 1,16,-1
EndSplineSet
EndChar

StartChar: yen
Encoding: 165 165 102
Width: 258
VWidth: 540
Flags: W
LayerCount: 2
Fore
SplineSet
89.5996 89.5996 m 1,0,-1
 89.5996 117.76 l 1,1,-1
 145.92 117.76 l 1,2,-1
 145.92 145.92 l 1,3,-1
 89.5996 145.92 l 1,4,-1
 89.5996 174.08 l 1,5,-1
 117.76 174.08 l 1,6,-1
 117.76 202.24 l 1,7,-1
 145.92 202.24 l 1,8,-1
 145.92 174.08 l 1,9,-1
 174.08 174.08 l 1,10,-1
 174.08 202.24 l 1,11,-1
 202.24 202.24 l 1,12,-1
 202.24 174.08 l 1,13,-1
 230.4 174.08 l 1,14,-1
 230.4 145.92 l 1,15,-1
 174.08 145.92 l 1,16,-1
 174.08 117.76 l 1,17,-1
 230.4 117.76 l 1,18,-1
 230.4 89.5996 l 1,19,-1
 89.5996 89.5996 l 1,0,-1
89.5996 202.24 m 1,20,-1
 89.5996 230.4 l 1,21,-1
 117.76 230.4 l 1,22,-1
 117.76 202.24 l 1,23,-1
 89.5996 202.24 l 1,20,-1
202.24 202.24 m 1,24,-1
 202.24 230.4 l 1,25,-1
 230.4 230.4 l 1,26,-1
 230.4 202.24 l 1,27,-1
 202.24 202.24 l 1,24,-1
EndSplineSet
EndChar

StartChar: brokenbar
Encoding: 166 166 103
Width: 74
VWidth: 540
Flags: W
LayerCount: 2
Fore
SplineSet
17.9199 89.5996 m 1,0,-1
 17.9199 145.92 l 1,1,-1
 46.0801 145.92 l 1,2,-1
 46.0801 89.5996 l 1,3,-1
 17.9199 89.5996 l 1,0,-1
17.9199 174.08 m 1,4,-1
 17.9199 230.4 l 1,5,-1
 46.0801 230.4 l 1,6,-1
 46.0801 174.08 l 1,7,-1
 17.9199 174.08 l 1,4,-1
EndSplineSet
EndChar

StartChar: section
Encoding: 167 167 104
Width: 166
VWidth: 576
Flags: W
LayerCount: 2
Fore
SplineSet
110.08 209.92 m 1,0,-1
 110.08 238.08 l 1,1,-1
 81.9199 238.08 l 1,2,-1
 81.9199 209.92 l 1,3,-1
 110.08 209.92 l 1,0,-1
53.7598 125.44 m 1,4,-1
 53.7598 153.6 l 1,5,-1
 110.08 153.6 l 1,6,-1
 110.08 181.76 l 1,7,-1
 53.7598 181.76 l 1,8,-1
 53.7598 322.56 l 1,9,-1
 138.24 322.56 l 1,10,-1
 138.24 294.4 l 1,11,-1
 81.9199 294.4 l 1,12,-1
 81.9199 266.24 l 1,13,-1
 138.24 266.24 l 1,14,-1
 138.24 125.44 l 1,15,-1
 53.7598 125.44 l 1,4,-1
EndSplineSet
EndChar

StartChar: dieresis
Encoding: 168 168 105
Width: 166
VWidth: 611
Flags: W
LayerCount: 2
Fore
SplineSet
53.7598 273.92 m 1,0,-1
 53.7598 302.08 l 1,1,-1
 81.9199 302.08 l 1,2,-1
 81.9199 273.92 l 1,3,-1
 53.7598 273.92 l 1,0,-1
110.08 273.92 m 1,4,-1
 110.08 302.08 l 1,5,-1
 138.24 302.08 l 1,6,-1
 138.24 273.92 l 1,7,-1
 110.08 273.92 l 1,4,-1
EndSplineSet
EndChar

StartChar: copyright
Encoding: 169 169 106
Width: 350
VWidth: 576
Flags: W
LayerCount: 2
Fore
SplineSet
181.76 181.76 m 1,0,-1
 181.76 266.24 l 1,1,-1
 266.24 266.24 l 1,2,-1
 266.24 238.08 l 1,3,-1
 209.92 238.08 l 1,4,-1
 209.92 209.92 l 1,5,-1
 266.24 209.92 l 1,6,-1
 266.24 181.76 l 1,7,-1
 181.76 181.76 l 1,0,-1
294.4 153.6 m 1,8,-1
 294.4 294.4 l 1,9,-1
 153.6 294.4 l 1,10,-1
 153.6 153.6 l 1,11,-1
 294.4 153.6 l 1,8,-1
125.44 125.44 m 1,12,-1
 125.44 322.56 l 1,13,-1
 322.56 322.56 l 1,14,-1
 322.56 125.44 l 1,15,-1
 125.44 125.44 l 1,12,-1
EndSplineSet
EndChar

StartChar: ordfeminine
Encoding: 170 170 107
Width: 166
VWidth: 647
Flags: W
LayerCount: 2
Fore
SplineSet
110.08 366.08 m 1,0,-1
 110.08 394.24 l 1,1,-1
 81.9199 394.24 l 1,2,-1
 81.9199 366.08 l 1,3,-1
 110.08 366.08 l 1,0,-1
53.7598 281.6 m 1,4,-1
 53.7598 422.4 l 1,5,-1
 138.24 422.4 l 1,6,-1
 138.24 281.6 l 1,7,-1
 110.08 281.6 l 1,8,-1
 110.08 337.92 l 1,9,-1
 81.9199 337.92 l 1,10,-1
 81.9199 281.6 l 1,11,-1
 53.7598 281.6 l 1,4,-1
EndSplineSet
EndChar

StartChar: guillemotleft
Encoding: 171 171 108
Width: 258
VWidth: 504
Flags: W
LayerCount: 2
Fore
SplineSet
117.76 53.7598 m 1,0,-1
 117.76 81.9199 l 1,1,-1
 145.92 81.9199 l 1,2,-1
 145.92 53.7598 l 1,3,-1
 117.76 53.7598 l 1,0,-1
202.24 53.7598 m 1,4,-1
 202.24 81.9199 l 1,5,-1
 230.4 81.9199 l 1,6,-1
 230.4 53.7598 l 1,7,-1
 202.24 53.7598 l 1,4,-1
89.5996 81.9199 m 1,8,-1
 89.5996 110.08 l 1,9,-1
 117.76 110.08 l 1,10,-1
 117.76 81.9199 l 1,11,-1
 89.5996 81.9199 l 1,8,-1
174.08 81.9199 m 1,12,-1
 174.08 110.08 l 1,13,-1
 202.24 110.08 l 1,14,-1
 202.24 81.9199 l 1,15,-1
 174.08 81.9199 l 1,12,-1
117.76 110.08 m 1,16,-1
 117.76 138.24 l 1,17,-1
 145.92 138.24 l 1,18,-1
 145.92 110.08 l 1,19,-1
 117.76 110.08 l 1,16,-1
202.24 110.08 m 1,20,-1
 202.24 138.24 l 1,21,-1
 230.4 138.24 l 1,22,-1
 230.4 110.08 l 1,23,-1
 202.24 110.08 l 1,20,-1
EndSplineSet
EndChar

StartChar: logicalnot
Encoding: 172 172 109
Width: 212
VWidth: 522
Flags: W
LayerCount: 2
Fore
SplineSet
156.16 99.8398 m 1,0,-1
 156.16 128 l 1,1,-1
 71.6797 128 l 1,2,-1
 71.6797 156.16 l 1,3,-1
 184.32 156.16 l 1,4,-1
 184.32 99.8398 l 1,5,-1
 156.16 99.8398 l 1,0,-1
EndSplineSet
EndChar

StartChar: registered
Encoding: 174 174 110
Width: 304
VWidth: 593
Flags: W
LayerCount: 2
Fore
SplineSet
163.84 227.84 m 1,0,-1
 163.84 284.16 l 1,1,-1
 220.16 284.16 l 1,2,-1
 220.16 256 l 1,3,-1
 192 256 l 1,4,-1
 192 227.84 l 1,5,-1
 163.84 227.84 l 1,0,-1
248.32 199.68 m 1,6,-1
 248.32 312.32 l 1,7,-1
 135.68 312.32 l 1,8,-1
 135.68 199.68 l 1,9,-1
 248.32 199.68 l 1,6,-1
107.52 171.52 m 1,10,-1
 107.52 340.48 l 1,11,-1
 276.48 340.48 l 1,12,-1
 276.48 171.52 l 1,13,-1
 107.52 171.52 l 1,10,-1
EndSplineSet
EndChar

StartChar: macron
Encoding: 175 175 111
Width: 258
VWidth: 611
Flags: W
LayerCount: 2
Fore
SplineSet
89.5996 273.92 m 1,0,-1
 89.5996 302.08 l 1,1,-1
 230.4 302.08 l 1,2,-1
 230.4 273.92 l 1,3,-1
 89.5996 273.92 l 1,0,-1
EndSplineSet
EndChar

StartChar: degree
Encoding: 176 176 112
Width: 166
VWidth: 611
Flags: W
LayerCount: 2
Fore
SplineSet
110.08 273.92 m 1,0,-1
 110.08 302.08 l 1,1,-1
 81.9199 302.08 l 1,2,-1
 81.9199 273.92 l 1,3,-1
 110.08 273.92 l 1,0,-1
53.7598 245.76 m 1,4,-1
 53.7598 330.24 l 1,5,-1
 138.24 330.24 l 1,6,-1
 138.24 245.76 l 1,7,-1
 53.7598 245.76 l 1,4,-1
EndSplineSet
EndChar

StartChar: plusminus
Encoding: 177 177 113
Width: 166
VWidth: 540
Flags: W
LayerCount: 2
Fore
SplineSet
53.7598 89.5996 m 1,0,-1
 53.7598 117.76 l 1,1,-1
 138.24 117.76 l 1,2,-1
 138.24 89.5996 l 1,3,-1
 53.7598 89.5996 l 1,0,-1
81.9199 145.92 m 1,4,-1
 81.9199 174.08 l 1,5,-1
 53.7598 174.08 l 1,6,-1
 53.7598 202.24 l 1,7,-1
 81.9199 202.24 l 1,8,-1
 81.9199 230.4 l 1,9,-1
 110.08 230.4 l 1,10,-1
 110.08 202.24 l 1,11,-1
 138.24 202.24 l 1,12,-1
 138.24 174.08 l 1,13,-1
 110.08 174.08 l 1,14,-1
 110.08 145.92 l 1,15,-1
 81.9199 145.92 l 1,4,-1
EndSplineSet
EndChar

StartChar: uni00B2
Encoding: 178 178 114
Width: 166
VWidth: 611
Flags: W
LayerCount: 2
Fore
SplineSet
53.7598 217.6 m 1,0,-1
 53.7598 302.08 l 1,1,-1
 110.08 302.08 l 1,2,-1
 110.08 330.24 l 1,3,-1
 53.7598 330.24 l 1,4,-1
 53.7598 358.4 l 1,5,-1
 138.24 358.4 l 1,6,-1
 138.24 273.92 l 1,7,-1
 81.9199 273.92 l 1,8,-1
 81.9199 245.76 l 1,9,-1
 138.24 245.76 l 1,10,-1
 138.24 217.6 l 1,11,-1
 53.7598 217.6 l 1,0,-1
EndSplineSet
EndChar

StartChar: uni00B3
Encoding: 179 179 115
Width: 166
VWidth: 611
Flags: W
LayerCount: 2
Fore
SplineSet
53.7598 217.6 m 1,0,-1
 53.7598 245.76 l 1,1,-1
 110.08 245.76 l 1,2,-1
 110.08 273.92 l 1,3,-1
 53.7598 273.92 l 1,4,-1
 53.7598 302.08 l 1,5,-1
 110.08 302.08 l 1,6,-1
 110.08 330.24 l 1,7,-1
 53.7598 330.24 l 1,8,-1
 53.7598 358.4 l 1,9,-1
 138.24 358.4 l 1,10,-1
 138.24 217.6 l 1,11,-1
 53.7598 217.6 l 1,0,-1
EndSplineSet
EndChar

StartChar: acute
Encoding: 180 180 116
Width: 120
VWidth: 593
Flags: W
LayerCount: 2
Fore
SplineSet
35.8398 227.84 m 1,0,-1
 35.8398 256 l 1,1,-1
 64 256 l 1,2,-1
 64 227.84 l 1,3,-1
 35.8398 227.84 l 1,0,-1
64 256 m 1,4,-1
 64 284.16 l 1,5,-1
 92.1602 284.16 l 1,6,-1
 92.1602 256 l 1,7,-1
 64 256 l 1,4,-1
EndSplineSet
EndChar

StartChar: uni00B5
Encoding: 181 181 117
Width: 166
VWidth: 504
Flags: W
LayerCount: 2
Fore
SplineSet
53.7598 -2.55957 m 1,0,-1
 53.7598 194.56 l 1,1,-1
 81.9199 194.56 l 1,2,-1
 81.9199 81.9199 l 1,3,-1
 110.08 81.9199 l 1,4,-1
 110.08 194.56 l 1,5,-1
 138.24 194.56 l 1,6,-1
 138.24 53.7598 l 1,7,-1
 81.9199 53.7598 l 1,8,-1
 81.9199 -2.55957 l 1,9,-1
 53.7598 -2.55957 l 1,0,-1
EndSplineSet
EndChar

StartChar: paragraph
Encoding: 182 182 118
Width: 212
VWidth: 540
Flags: W
LayerCount: 2
Fore
SplineSet
99.8398 89.5996 m 1,0,-1
 99.8398 174.08 l 1,1,-1
 71.6797 174.08 l 1,2,-1
 71.6797 230.4 l 1,3,-1
 184.32 230.4 l 1,4,-1
 184.32 89.5996 l 1,5,-1
 156.16 89.5996 l 1,6,-1
 156.16 202.24 l 1,7,-1
 128 202.24 l 1,8,-1
 128 89.5996 l 1,9,-1
 99.8398 89.5996 l 1,0,-1
EndSplineSet
EndChar

StartChar: periodcentered
Encoding: 183 183 119
Width: 74
VWidth: 540
Flags: W
LayerCount: 2
Fore
SplineSet
17.9199 145.92 m 1,0,-1
 17.9199 174.08 l 1,1,-1
 46.0801 174.08 l 1,2,-1
 46.0801 145.92 l 1,3,-1
 17.9199 145.92 l 1,0,-1
EndSplineSet
EndChar

StartChar: cedilla
Encoding: 184 184 120
Width: 120
VWidth: 450
Flags: W
LayerCount: 2
Fore
SplineSet
35.8398 -28.1602 m 1,0,-1
 35.8398 0 l 1,1,-1
 64 0 l 1,2,-1
 64 28.1602 l 1,3,-1
 92.1602 28.1602 l 1,4,-1
 92.1602 -28.1602 l 1,5,-1
 35.8398 -28.1602 l 1,0,-1
EndSplineSet
EndChar

StartChar: uni00B9
Encoding: 185 185 121
Width: 138
VWidth: 611
Flags: W
LayerCount: 2
Fore
SplineSet
81.9199 217.6 m 1,0,-1
 81.9199 358.4 l 1,1,-1
 110.08 358.4 l 1,2,-1
 110.08 217.6 l 1,3,-1
 81.9199 217.6 l 1,0,-1
EndSplineSet
EndChar

StartChar: ordmasculine
Encoding: 186 186 122
Width: 166
VWidth: 647
Flags: W
LayerCount: 2
Fore
SplineSet
110.08 337.92 m 1,0,-1
 110.08 366.08 l 1,1,-1
 81.9199 366.08 l 1,2,-1
 81.9199 337.92 l 1,3,-1
 110.08 337.92 l 1,0,-1
53.7598 309.76 m 1,4,-1
 53.7598 394.24 l 1,5,-1
 138.24 394.24 l 1,6,-1
 138.24 309.76 l 1,7,-1
 53.7598 309.76 l 1,4,-1
EndSplineSet
EndChar

StartChar: guillemotright
Encoding: 187 187 123
Width: 258
VWidth: 504
Flags: W
LayerCount: 2
Fore
SplineSet
89.5996 53.7598 m 1,0,-1
 89.5996 81.9199 l 1,1,-1
 117.76 81.9199 l 1,2,-1
 117.76 53.7598 l 1,3,-1
 89.5996 53.7598 l 1,0,-1
174.08 53.7598 m 1,4,-1
 174.08 81.9199 l 1,5,-1
 202.24 81.9199 l 1,6,-1
 202.24 53.7598 l 1,7,-1
 174.08 53.7598 l 1,4,-1
117.76 81.9199 m 1,8,-1
 117.76 110.08 l 1,9,-1
 145.92 110.08 l 1,10,-1
 145.92 81.9199 l 1,11,-1
 117.76 81.9199 l 1,8,-1
202.24 81.9199 m 1,12,-1
 202.24 110.08 l 1,13,-1
 230.4 110.08 l 1,14,-1
 230.4 81.9199 l 1,15,-1
 202.24 81.9199 l 1,12,-1
89.5996 110.08 m 1,16,-1
 89.5996 138.24 l 1,17,-1
 117.76 138.24 l 1,18,-1
 117.76 110.08 l 1,19,-1
 89.5996 110.08 l 1,16,-1
174.08 110.08 m 1,20,-1
 174.08 138.24 l 1,21,-1
 202.24 138.24 l 1,22,-1
 202.24 110.08 l 1,23,-1
 174.08 110.08 l 1,20,-1
EndSplineSet
EndChar

StartChar: onequarter
Encoding: 188 188 124
Width: 442
VWidth: 540
Flags: W
LayerCount: 2
Fore
SplineSet
217.6 117.76 m 1,0,-1
 217.6 145.92 l 1,1,-1
 245.76 145.92 l 1,2,-1
 245.76 117.76 l 1,3,-1
 217.6 117.76 l 1,0,-1
245.76 145.92 m 1,4,-1
 245.76 174.08 l 1,5,-1
 273.92 174.08 l 1,6,-1
 273.92 145.92 l 1,7,-1
 245.76 145.92 l 1,4,-1
273.92 174.08 m 1,8,-1
 273.92 202.24 l 1,9,-1
 302.08 202.24 l 1,10,-1
 302.08 174.08 l 1,11,-1
 273.92 174.08 l 1,8,-1
161.28 89.5996 m 1,12,-1
 161.28 230.4 l 1,13,-1
 189.44 230.4 l 1,14,-1
 189.44 117.76 l 1,15,-1
 217.6 117.76 l 1,16,-1
 217.6 89.5996 l 1,17,-1
 161.28 89.5996 l 1,12,-1
386.56 89.5996 m 1,18,-1
 386.56 145.92 l 1,19,-1
 330.24 145.92 l 1,20,-1
 330.24 202.24 l 1,21,-1
 302.08 202.24 l 1,22,-1
 302.08 230.4 l 1,23,-1
 358.4 230.4 l 1,24,-1
 358.4 174.08 l 1,25,-1
 386.56 174.08 l 1,26,-1
 386.56 230.4 l 1,27,-1
 414.72 230.4 l 1,28,-1
 414.72 89.5996 l 1,29,-1
 386.56 89.5996 l 1,18,-1
EndSplineSet
EndChar

StartChar: onehalf
Encoding: 189 189 125
Width: 442
VWidth: 540
Flags: W
LayerCount: 2
Fore
SplineSet
217.6 117.76 m 1,0,-1
 217.6 145.92 l 1,1,-1
 245.76 145.92 l 1,2,-1
 245.76 117.76 l 1,3,-1
 217.6 117.76 l 1,0,-1
245.76 145.92 m 1,4,-1
 245.76 174.08 l 1,5,-1
 273.92 174.08 l 1,6,-1
 273.92 145.92 l 1,7,-1
 245.76 145.92 l 1,4,-1
273.92 174.08 m 1,8,-1
 273.92 202.24 l 1,9,-1
 302.08 202.24 l 1,10,-1
 302.08 174.08 l 1,11,-1
 273.92 174.08 l 1,8,-1
161.28 89.5996 m 1,12,-1
 161.28 230.4 l 1,13,-1
 189.44 230.4 l 1,14,-1
 189.44 117.76 l 1,15,-1
 217.6 117.76 l 1,16,-1
 217.6 89.5996 l 1,17,-1
 161.28 89.5996 l 1,12,-1
330.24 89.5996 m 1,18,-1
 330.24 174.08 l 1,19,-1
 386.56 174.08 l 1,20,-1
 386.56 202.24 l 1,21,-1
 302.08 202.24 l 1,22,-1
 302.08 230.4 l 1,23,-1
 414.72 230.4 l 1,24,-1
 414.72 145.92 l 1,25,-1
 358.4 145.92 l 1,26,-1
 358.4 117.76 l 1,27,-1
 414.72 117.76 l 1,28,-1
 414.72 89.5996 l 1,29,-1
 330.24 89.5996 l 1,18,-1
EndSplineSet
EndChar

StartChar: threequarters
Encoding: 190 190 126
Width: 535
VWidth: 540
Flags: W
LayerCount: 2
Fore
SplineSet
309.76 117.76 m 1,0,-1
 309.76 145.92 l 1,1,-1
 337.92 145.92 l 1,2,-1
 337.92 117.76 l 1,3,-1
 309.76 117.76 l 1,0,-1
337.92 145.92 m 1,4,-1
 337.92 174.08 l 1,5,-1
 366.08 174.08 l 1,6,-1
 366.08 145.92 l 1,7,-1
 337.92 145.92 l 1,4,-1
366.08 174.08 m 1,8,-1
 366.08 202.24 l 1,9,-1
 394.24 202.24 l 1,10,-1
 394.24 174.08 l 1,11,-1
 366.08 174.08 l 1,8,-1
197.12 89.5996 m 1,12,-1
 197.12 117.76 l 1,13,-1
 253.44 117.76 l 1,14,-1
 253.44 145.92 l 1,15,-1
 197.12 145.92 l 1,16,-1
 197.12 174.08 l 1,17,-1
 253.44 174.08 l 1,18,-1
 253.44 202.24 l 1,19,-1
 197.12 202.24 l 1,20,-1
 197.12 230.4 l 1,21,-1
 281.6 230.4 l 1,22,-1
 281.6 117.76 l 1,23,-1
 309.76 117.76 l 1,24,-1
 309.76 89.5996 l 1,25,-1
 197.12 89.5996 l 1,12,-1
478.72 89.5996 m 1,26,-1
 478.72 145.92 l 1,27,-1
 422.4 145.92 l 1,28,-1
 422.4 202.24 l 1,29,-1
 394.24 202.24 l 1,30,-1
 394.24 230.4 l 1,31,-1
 450.56 230.4 l 1,32,-1
 450.56 174.08 l 1,33,-1
 478.72 174.08 l 1,34,-1
 478.72 230.4 l 1,35,-1
 506.88 230.4 l 1,36,-1
 506.88 89.5996 l 1,37,-1
 478.72 89.5996 l 1,26,-1
EndSplineSet
EndChar

StartChar: questiondown
Encoding: 191 191 127
Width: 166
VWidth: 396
Flags: W
LayerCount: 2
Fore
SplineSet
53.7598 -166.4 m 1,0,-1
 53.7598 -81.9199 l 1,1,-1
 110.08 -81.9199 l 1,2,-1
 110.08 -110.08 l 1,3,-1
 81.9199 -110.08 l 1,4,-1
 81.9199 -138.24 l 1,5,-1
 138.24 -138.24 l 1,6,-1
 138.24 -166.4 l 1,7,-1
 53.7598 -166.4 l 1,0,-1
81.9199 -53.7598 m 1,8,-1
 81.9199 -25.5996 l 1,9,-1
 110.08 -25.5996 l 1,10,-1
 110.08 -53.7598 l 1,11,-1
 81.9199 -53.7598 l 1,8,-1
EndSplineSet
EndChar

StartChar: Adieresis
Encoding: 196 196 128
Width: 166
VWidth: 576
Flags: W
LayerCount: 2
Fore
SplineSet
110.08 209.92 m 1,0,-1
 110.08 238.08 l 1,1,-1
 81.9199 238.08 l 1,2,-1
 81.9199 209.92 l 1,3,-1
 110.08 209.92 l 1,0,-1
53.7598 125.44 m 1,4,-1
 53.7598 266.24 l 1,5,-1
 138.24 266.24 l 1,6,-1
 138.24 125.44 l 1,7,-1
 110.08 125.44 l 1,8,-1
 110.08 181.76 l 1,9,-1
 81.9199 181.76 l 1,10,-1
 81.9199 125.44 l 1,11,-1
 53.7598 125.44 l 1,4,-1
53.7598 294.4 m 1,12,-1
 53.7598 322.56 l 1,13,-1
 81.9199 322.56 l 1,14,-1
 81.9199 294.4 l 1,15,-1
 53.7598 294.4 l 1,12,-1
110.08 294.4 m 1,16,-1
 110.08 322.56 l 1,17,-1
 138.24 322.56 l 1,18,-1
 138.24 294.4 l 1,19,-1
 110.08 294.4 l 1,16,-1
EndSplineSet
EndChar

StartChar: Odieresis
Encoding: 214 214 129
Width: 166
VWidth: 576
Flags: W
LayerCount: 2
Fore
SplineSet
110.08 153.6 m 1,0,-1
 110.08 238.08 l 1,1,-1
 81.9199 238.08 l 1,2,-1
 81.9199 153.6 l 1,3,-1
 110.08 153.6 l 1,0,-1
53.7598 125.44 m 1,4,-1
 53.7598 266.24 l 1,5,-1
 138.24 266.24 l 1,6,-1
 138.24 125.44 l 1,7,-1
 53.7598 125.44 l 1,4,-1
53.7598 294.4 m 1,8,-1
 53.7598 322.56 l 1,9,-1
 81.9199 322.56 l 1,10,-1
 81.9199 294.4 l 1,11,-1
 53.7598 294.4 l 1,8,-1
110.08 294.4 m 1,12,-1
 110.08 322.56 l 1,13,-1
 138.24 322.56 l 1,14,-1
 138.24 294.4 l 1,15,-1
 110.08 294.4 l 1,12,-1
EndSplineSet
EndChar

StartChar: multiply
Encoding: 215 215 130
Width: 166
VWidth: 540
Flags: W
LayerCount: 2
Fore
SplineSet
53.7598 117.76 m 1,0,-1
 53.7598 145.92 l 1,1,-1
 81.9199 145.92 l 1,2,-1
 81.9199 117.76 l 1,3,-1
 53.7598 117.76 l 1,0,-1
110.08 117.76 m 1,4,-1
 110.08 145.92 l 1,5,-1
 138.24 145.92 l 1,6,-1
 138.24 117.76 l 1,7,-1
 110.08 117.76 l 1,4,-1
81.9199 145.92 m 1,8,-1
 81.9199 174.08 l 1,9,-1
 110.08 174.08 l 1,10,-1
 110.08 145.92 l 1,11,-1
 81.9199 145.92 l 1,8,-1
53.7598 174.08 m 1,12,-1
 53.7598 202.24 l 1,13,-1
 81.9199 202.24 l 1,14,-1
 81.9199 174.08 l 1,15,-1
 53.7598 174.08 l 1,12,-1
110.08 174.08 m 1,16,-1
 110.08 202.24 l 1,17,-1
 138.24 202.24 l 1,18,-1
 138.24 174.08 l 1,19,-1
 110.08 174.08 l 1,16,-1
EndSplineSet
EndChar

StartChar: Udieresis
Encoding: 220 220 131
Width: 166
VWidth: 576
Flags: W
LayerCount: 2
Fore
SplineSet
53.7598 125.44 m 1,0,-1
 53.7598 266.24 l 1,1,-1
 81.9199 266.24 l 1,2,-1
 81.9199 153.6 l 1,3,-1
 110.08 153.6 l 1,4,-1
 110.08 266.24 l 1,5,-1
 138.24 266.24 l 1,6,-1
 138.24 125.44 l 1,7,-1
 53.7598 125.44 l 1,0,-1
53.7598 294.4 m 1,8,-1
 53.7598 322.56 l 1,9,-1
 81.9199 322.56 l 1,10,-1
 81.9199 294.4 l 1,11,-1
 53.7598 294.4 l 1,8,-1
110.08 294.4 m 1,12,-1
 110.08 322.56 l 1,13,-1
 138.24 322.56 l 1,14,-1
 138.24 294.4 l 1,15,-1
 110.08 294.4 l 1,12,-1
EndSplineSet
EndChar

StartChar: adieresis
Encoding: 228 228 132
Width: 166
VWidth: 576
Flags: W
LayerCount: 2
Fore
SplineSet
110.08 153.6 m 1,0,-1
 110.08 181.76 l 1,1,-1
 81.9199 181.76 l 1,2,-1
 81.9199 153.6 l 1,3,-1
 110.08 153.6 l 1,0,-1
53.7598 125.44 m 1,4,-1
 53.7598 209.92 l 1,5,-1
 110.08 209.92 l 1,6,-1
 110.08 238.08 l 1,7,-1
 53.7598 238.08 l 1,8,-1
 53.7598 266.24 l 1,9,-1
 138.24 266.24 l 1,10,-1
 138.24 125.44 l 1,11,-1
 53.7598 125.44 l 1,4,-1
53.7598 294.4 m 1,12,-1
 53.7598 322.56 l 1,13,-1
 81.9199 322.56 l 1,14,-1
 81.9199 294.4 l 1,15,-1
 53.7598 294.4 l 1,12,-1
110.08 294.4 m 1,16,-1
 110.08 322.56 l 1,17,-1
 138.24 322.56 l 1,18,-1
 138.24 294.4 l 1,19,-1
 110.08 294.4 l 1,16,-1
EndSplineSet
EndChar

StartChar: odieresis
Encoding: 246 246 133
Width: 166
VWidth: 576
Flags: W
LayerCount: 2
Fore
SplineSet
110.08 153.6 m 1,0,-1
 110.08 238.08 l 1,1,-1
 81.9199 238.08 l 1,2,-1
 81.9199 153.6 l 1,3,-1
 110.08 153.6 l 1,0,-1
53.7598 125.44 m 1,4,-1
 53.7598 266.24 l 1,5,-1
 138.24 266.24 l 1,6,-1
 138.24 125.44 l 1,7,-1
 53.7598 125.44 l 1,4,-1
53.7598 294.4 m 1,8,-1
 53.7598 322.56 l 1,9,-1
 81.9199 322.56 l 1,10,-1
 81.9199 294.4 l 1,11,-1
 53.7598 294.4 l 1,8,-1
110.08 294.4 m 1,12,-1
 110.08 322.56 l 1,13,-1
 138.24 322.56 l 1,14,-1
 138.24 294.4 l 1,15,-1
 110.08 294.4 l 1,12,-1
EndSplineSet
EndChar

StartChar: divide
Encoding: 247 247 134
Width: 166
VWidth: 539
Flags: W
LayerCount: 2
Fore
SplineSet
90.2803 125.84 m 1,0,-1
 90.2803 136.84 l 1,1,-1
 101.28 136.84 l 1,2,-1
 101.28 125.84 l 1,3,-1
 90.2803 125.84 l 1,0,-1
53.7598 145.64 m 1,4,-1
 53.7598 173.8 l 1,5,-1
 138.24 173.8 l 1,6,-1
 138.24 145.64 l 1,7,-1
 53.7598 145.64 l 1,4,-1
90.2803 182.16 m 1,8,-1
 90.2803 193.16 l 1,9,-1
 101.28 193.16 l 1,10,-1
 101.28 182.16 l 1,11,-1
 90.2803 182.16 l 1,8,-1
EndSplineSet
EndChar

StartChar: udieresis
Encoding: 252 252 135
Width: 166
VWidth: 576
Flags: W
LayerCount: 2
Fore
SplineSet
53.7598 125.44 m 1,0,-1
 53.7598 266.24 l 1,1,-1
 81.9199 266.24 l 1,2,-1
 81.9199 153.6 l 1,3,-1
 110.08 153.6 l 1,4,-1
 110.08 266.24 l 1,5,-1
 138.24 266.24 l 1,6,-1
 138.24 125.44 l 1,7,-1
 53.7598 125.44 l 1,0,-1
53.7598 294.4 m 1,8,-1
 53.7598 322.56 l 1,9,-1
 81.9199 322.56 l 1,10,-1
 81.9199 294.4 l 1,11,-1
 53.7598 294.4 l 1,8,-1
110.08 294.4 m 1,12,-1
 110.08 322.56 l 1,13,-1
 138.24 322.56 l 1,14,-1
 138.24 294.4 l 1,15,-1
 110.08 294.4 l 1,12,-1
EndSplineSet
EndChar

StartChar: Cacute
Encoding: 262 262 136
Width: 166
VWidth: 593
Flags: W
LayerCount: 2
Fore
SplineSet
53.7598 143.36 m 1,0,-1
 53.7598 284.16 l 1,1,-1
 138.24 284.16 l 1,2,-1
 138.24 256 l 1,3,-1
 81.9199 256 l 1,4,-1
 81.9199 171.52 l 1,5,-1
 138.24 171.52 l 1,6,-1
 138.24 143.36 l 1,7,-1
 53.7598 143.36 l 1,0,-1
81.9199 312.32 m 1,8,-1
 81.9199 340.48 l 1,9,-1
 110.08 340.48 l 1,10,-1
 110.08 312.32 l 1,11,-1
 81.9199 312.32 l 1,8,-1
110.08 340.48 m 1,12,-1
 110.08 368.64 l 1,13,-1
 138.24 368.64 l 1,14,-1
 138.24 340.48 l 1,15,-1
 110.08 340.48 l 1,12,-1
EndSplineSet
EndChar

StartChar: cacute
Encoding: 263 263 137
Width: 166
VWidth: 593
Flags: W
LayerCount: 2
Fore
SplineSet
53.7598 143.36 m 1,0,-1
 53.7598 284.16 l 1,1,-1
 138.24 284.16 l 1,2,-1
 138.24 256 l 1,3,-1
 81.9199 256 l 1,4,-1
 81.9199 171.52 l 1,5,-1
 138.24 171.52 l 1,6,-1
 138.24 143.36 l 1,7,-1
 53.7598 143.36 l 1,0,-1
81.9199 312.32 m 1,8,-1
 81.9199 340.48 l 1,9,-1
 110.08 340.48 l 1,10,-1
 110.08 312.32 l 1,11,-1
 81.9199 312.32 l 1,8,-1
110.08 340.48 m 1,12,-1
 110.08 368.64 l 1,13,-1
 138.24 368.64 l 1,14,-1
 138.24 340.48 l 1,15,-1
 110.08 340.48 l 1,12,-1
EndSplineSet
EndChar

StartChar: Ccaron
Encoding: 268 268 138
Width: 166
VWidth: 593
Flags: W
LayerCount: 2
Fore
SplineSet
53.7598 143.36 m 1,0,-1
 53.7598 284.16 l 1,1,-1
 138.24 284.16 l 1,2,-1
 138.24 256 l 1,3,-1
 81.9199 256 l 1,4,-1
 81.9199 171.52 l 1,5,-1
 138.24 171.52 l 1,6,-1
 138.24 143.36 l 1,7,-1
 53.7598 143.36 l 1,0,-1
81.9199 312.32 m 1,8,-1
 81.9199 340.48 l 1,9,-1
 110.08 340.48 l 1,10,-1
 110.08 312.32 l 1,11,-1
 81.9199 312.32 l 1,8,-1
53.7598 340.48 m 1,12,-1
 53.7598 368.64 l 1,13,-1
 81.9199 368.64 l 1,14,-1
 81.9199 340.48 l 1,15,-1
 53.7598 340.48 l 1,12,-1
110.08 340.48 m 1,16,-1
 110.08 368.64 l 1,17,-1
 138.24 368.64 l 1,18,-1
 138.24 340.48 l 1,19,-1
 110.08 340.48 l 1,16,-1
EndSplineSet
EndChar

StartChar: ccaron
Encoding: 269 269 139
Width: 166
VWidth: 593
Flags: W
LayerCount: 2
Fore
SplineSet
53.7598 143.36 m 1,0,-1
 53.7598 284.16 l 1,1,-1
 138.24 284.16 l 1,2,-1
 138.24 256 l 1,3,-1
 81.9199 256 l 1,4,-1
 81.9199 171.52 l 1,5,-1
 138.24 171.52 l 1,6,-1
 138.24 143.36 l 1,7,-1
 53.7598 143.36 l 1,0,-1
81.9199 312.32 m 1,8,-1
 81.9199 340.48 l 1,9,-1
 110.08 340.48 l 1,10,-1
 110.08 312.32 l 1,11,-1
 81.9199 312.32 l 1,8,-1
53.7598 340.48 m 1,12,-1
 53.7598 368.64 l 1,13,-1
 81.9199 368.64 l 1,14,-1
 81.9199 340.48 l 1,15,-1
 53.7598 340.48 l 1,12,-1
110.08 340.48 m 1,16,-1
 110.08 368.64 l 1,17,-1
 138.24 368.64 l 1,18,-1
 138.24 340.48 l 1,19,-1
 110.08 340.48 l 1,16,-1
EndSplineSet
EndChar

StartChar: Dcroat
Encoding: 272 272 140
Width: 212
VWidth: 540
Flags: W
LayerCount: 2
Fore
SplineSet
156.16 117.76 m 1,0,-1
 156.16 202.24 l 1,1,-1
 184.32 202.24 l 1,2,-1
 184.32 117.76 l 1,3,-1
 156.16 117.76 l 1,0,-1
99.8398 89.5996 m 1,4,-1
 99.8398 145.92 l 1,5,-1
 71.6797 145.92 l 1,6,-1
 71.6797 174.08 l 1,7,-1
 99.8398 174.08 l 1,8,-1
 99.8398 230.4 l 1,9,-1
 156.16 230.4 l 1,10,-1
 156.16 202.24 l 1,11,-1
 128 202.24 l 1,12,-1
 128 117.76 l 1,13,-1
 156.16 117.76 l 1,14,-1
 156.16 89.5996 l 1,15,-1
 99.8398 89.5996 l 1,4,-1
EndSplineSet
EndChar

StartChar: dcroat
Encoding: 273 273 141
Width: 212
VWidth: 576
Flags: W
LayerCount: 2
Fore
SplineSet
128 153.6 m 1,0,-1
 128 238.08 l 1,1,-1
 99.8398 238.08 l 1,2,-1
 99.8398 153.6 l 1,3,-1
 128 153.6 l 1,0,-1
71.6797 125.44 m 1,4,-1
 71.6797 266.24 l 1,5,-1
 128 266.24 l 1,6,-1
 128 294.4 l 1,7,-1
 99.8398 294.4 l 1,8,-1
 99.8398 322.56 l 1,9,-1
 184.32 322.56 l 1,10,-1
 184.32 294.4 l 1,11,-1
 156.16 294.4 l 1,12,-1
 156.16 125.44 l 1,13,-1
 71.6797 125.44 l 1,4,-1
EndSplineSet
EndChar

StartChar: Scaron
Encoding: 352 352 142
Width: 166
VWidth: 593
Flags: W
LayerCount: 2
Fore
SplineSet
53.7598 143.36 m 1,0,-1
 53.7598 171.52 l 1,1,-1
 110.08 171.52 l 1,2,-1
 110.08 199.68 l 1,3,-1
 53.7598 199.68 l 1,4,-1
 53.7598 284.16 l 1,5,-1
 138.24 284.16 l 1,6,-1
 138.24 256 l 1,7,-1
 81.9199 256 l 1,8,-1
 81.9199 227.84 l 1,9,-1
 138.24 227.84 l 1,10,-1
 138.24 143.36 l 1,11,-1
 53.7598 143.36 l 1,0,-1
81.9199 312.32 m 1,12,-1
 81.9199 340.48 l 1,13,-1
 110.08 340.48 l 1,14,-1
 110.08 312.32 l 1,15,-1
 81.9199 312.32 l 1,12,-1
53.7598 340.48 m 1,16,-1
 53.7598 368.64 l 1,17,-1
 81.9199 368.64 l 1,18,-1
 81.9199 340.48 l 1,19,-1
 53.7598 340.48 l 1,16,-1
110.08 340.48 m 1,20,-1
 110.08 368.64 l 1,21,-1
 138.24 368.64 l 1,22,-1
 138.24 340.48 l 1,23,-1
 110.08 340.48 l 1,20,-1
EndSplineSet
EndChar

StartChar: scaron
Encoding: 353 353 143
Width: 166
VWidth: 593
Flags: W
LayerCount: 2
Fore
SplineSet
53.7598 143.36 m 1,0,-1
 53.7598 171.52 l 1,1,-1
 110.08 171.52 l 1,2,-1
 110.08 199.68 l 1,3,-1
 53.7598 199.68 l 1,4,-1
 53.7598 284.16 l 1,5,-1
 138.24 284.16 l 1,6,-1
 138.24 256 l 1,7,-1
 81.9199 256 l 1,8,-1
 81.9199 227.84 l 1,9,-1
 138.24 227.84 l 1,10,-1
 138.24 143.36 l 1,11,-1
 53.7598 143.36 l 1,0,-1
81.9199 312.32 m 1,12,-1
 81.9199 340.48 l 1,13,-1
 110.08 340.48 l 1,14,-1
 110.08 312.32 l 1,15,-1
 81.9199 312.32 l 1,12,-1
53.7598 340.48 m 1,16,-1
 53.7598 368.64 l 1,17,-1
 81.9199 368.64 l 1,18,-1
 81.9199 340.48 l 1,19,-1
 53.7598 340.48 l 1,16,-1
110.08 340.48 m 1,20,-1
 110.08 368.64 l 1,21,-1
 138.24 368.64 l 1,22,-1
 138.24 340.48 l 1,23,-1
 110.08 340.48 l 1,20,-1
EndSplineSet
EndChar

StartChar: Zcaron
Encoding: 381 381 144
Width: 166
VWidth: 593
Flags: W
LayerCount: 2
Fore
SplineSet
53.7598 143.36 m 1,0,-1
 53.7598 199.68 l 1,1,-1
 81.9199 199.68 l 1,2,-1
 81.9199 171.52 l 1,3,-1
 138.24 171.52 l 1,4,-1
 138.24 143.36 l 1,5,-1
 53.7598 143.36 l 1,0,-1
81.9199 199.68 m 1,6,-1
 81.9199 227.84 l 1,7,-1
 110.08 227.84 l 1,8,-1
 110.08 199.68 l 1,9,-1
 81.9199 199.68 l 1,6,-1
110.08 227.84 m 1,10,-1
 110.08 256 l 1,11,-1
 53.7598 256 l 1,12,-1
 53.7598 284.16 l 1,13,-1
 138.24 284.16 l 1,14,-1
 138.24 227.84 l 1,15,-1
 110.08 227.84 l 1,10,-1
81.9199 312.32 m 1,16,-1
 81.9199 340.48 l 1,17,-1
 110.08 340.48 l 1,18,-1
 110.08 312.32 l 1,19,-1
 81.9199 312.32 l 1,16,-1
53.7598 340.48 m 1,20,-1
 53.7598 368.64 l 1,21,-1
 81.9199 368.64 l 1,22,-1
 81.9199 340.48 l 1,23,-1
 53.7598 340.48 l 1,20,-1
110.08 340.48 m 1,24,-1
 110.08 368.64 l 1,25,-1
 138.24 368.64 l 1,26,-1
 138.24 340.48 l 1,27,-1
 110.08 340.48 l 1,24,-1
EndSplineSet
EndChar

StartChar: zcaron
Encoding: 382 382 145
Width: 166
VWidth: 593
Flags: W
LayerCount: 2
Fore
SplineSet
53.7598 143.36 m 1,0,-1
 53.7598 199.68 l 1,1,-1
 81.9199 199.68 l 1,2,-1
 81.9199 171.52 l 1,3,-1
 138.24 171.52 l 1,4,-1
 138.24 143.36 l 1,5,-1
 53.7598 143.36 l 1,0,-1
81.9199 199.68 m 1,6,-1
 81.9199 227.84 l 1,7,-1
 110.08 227.84 l 1,8,-1
 110.08 199.68 l 1,9,-1
 81.9199 199.68 l 1,6,-1
110.08 227.84 m 1,10,-1
 110.08 256 l 1,11,-1
 53.7598 256 l 1,12,-1
 53.7598 284.16 l 1,13,-1
 138.24 284.16 l 1,14,-1
 138.24 227.84 l 1,15,-1
 110.08 227.84 l 1,10,-1
81.9199 312.32 m 1,16,-1
 81.9199 340.48 l 1,17,-1
 110.08 340.48 l 1,18,-1
 110.08 312.32 l 1,19,-1
 81.9199 312.32 l 1,16,-1
53.7598 340.48 m 1,20,-1
 53.7598 368.64 l 1,21,-1
 81.9199 368.64 l 1,22,-1
 81.9199 340.48 l 1,23,-1
 53.7598 340.48 l 1,20,-1
110.08 340.48 m 1,24,-1
 110.08 368.64 l 1,25,-1
 138.24 368.64 l 1,26,-1
 138.24 340.48 l 1,27,-1
 110.08 340.48 l 1,24,-1
EndSplineSet
EndChar

StartChar: uni1E9E
Encoding: 7838 7838 146
Width: 258
VWidth: 540
Flags: W
LayerCount: 2
Fore
SplineSet
89.5996 89.5996 m 1,0,-1
 89.5996 230.4 l 1,1,-1
 230.4 230.4 l 1,2,-1
 230.4 89.5996 l 1,3,-1
 145.92 89.5996 l 1,4,-1
 145.92 117.76 l 1,5,-1
 202.24 117.76 l 1,6,-1
 202.24 145.92 l 1,7,-1
 145.92 145.92 l 1,8,-1
 145.92 174.08 l 1,9,-1
 202.24 174.08 l 1,10,-1
 202.24 202.24 l 1,11,-1
 117.76 202.24 l 1,12,-1
 117.76 89.5996 l 1,13,-1
 89.5996 89.5996 l 1,0,-1
EndSplineSet
EndChar

StartChar: emdash
Encoding: 8212 8212 147
Width: 350
VWidth: 540
Flags: W
LayerCount: 2
Fore
SplineSet
125.44 145.92 m 1,0,-1
 125.44 174.08 l 1,1,-1
 322.56 174.08 l 1,2,-1
 322.56 145.92 l 1,3,-1
 125.44 145.92 l 1,0,-1
EndSplineSet
EndChar

StartChar: quoteleft
Encoding: 8216 8216 148
Width: 120
VWidth: 450
Flags: W
LayerCount: 2
Fore
SplineSet
64 -28.1602 m 1,0,-1
 64 0 l 1,1,-1
 35.8398 0 l 1,2,-1
 35.8398 28.1602 l 1,3,-1
 92.1602 28.1602 l 1,4,-1
 92.1602 -28.1602 l 1,5,-1
 64 -28.1602 l 1,0,-1
EndSplineSet
EndChar

StartChar: quoteright
Encoding: 8217 8217 149
Width: 120
VWidth: 593
Flags: W
LayerCount: 2
Fore
SplineSet
35.8398 227.84 m 1,0,-1
 35.8398 284.16 l 1,1,-1
 64 284.16 l 1,2,-1
 64 256 l 1,3,-1
 92.1602 256 l 1,4,-1
 92.1602 227.84 l 1,5,-1
 35.8398 227.84 l 1,0,-1
EndSplineSet
EndChar

StartChar: quotesinglbase
Encoding: 8218 8218 150
Width: 92
VWidth: 450
Flags: W
LayerCount: 2
Fore
SplineSet
64 -28.1602 m 1,0,-1
 64 0 l 1,1,-1
 35.8398 0 l 1,2,-1
 35.8398 28.1602 l 1,3,-1
 92.1602 28.1602 l 1,4,-1
 92.1602 -28.1602 l 1,5,-1
 64 -28.1602 l 1,0,-1
EndSplineSet
EndChar

StartChar: quotereversed
Encoding: 8219 8219 151
Width: 120
VWidth: 593
Flags: W
LayerCount: 2
Fore
SplineSet
35.8398 227.84 m 1,0,-1
 35.8398 284.16 l 1,1,-1
 92.1602 284.16 l 1,2,-1
 92.1602 256 l 1,3,-1
 64 256 l 1,4,-1
 64 227.84 l 1,5,-1
 35.8398 227.84 l 1,0,-1
EndSplineSet
EndChar

StartChar: quotedblleft
Encoding: 8220 8220 152
Width: 258
VWidth: 450
Flags: W
LayerCount: 2
Fore
SplineSet
117.76 -28.1602 m 1,0,-1
 117.76 0 l 1,1,-1
 89.5996 0 l 1,2,-1
 89.5996 28.1602 l 1,3,-1
 145.92 28.1602 l 1,4,-1
 145.92 -28.1602 l 1,5,-1
 117.76 -28.1602 l 1,0,-1
202.24 -28.1602 m 1,6,-1
 202.24 0 l 1,7,-1
 174.08 0 l 1,8,-1
 174.08 28.1602 l 1,9,-1
 230.4 28.1602 l 1,10,-1
 230.4 -28.1602 l 1,11,-1
 202.24 -28.1602 l 1,6,-1
EndSplineSet
EndChar

StartChar: quotedblright
Encoding: 8221 8221 153
Width: 258
VWidth: 593
Flags: W
LayerCount: 2
Fore
SplineSet
89.5996 227.84 m 1,0,-1
 89.5996 284.16 l 1,1,-1
 117.76 284.16 l 1,2,-1
 117.76 256 l 1,3,-1
 145.92 256 l 1,4,-1
 145.92 227.84 l 1,5,-1
 89.5996 227.84 l 1,0,-1
174.08 227.84 m 1,6,-1
 174.08 284.16 l 1,7,-1
 202.24 284.16 l 1,8,-1
 202.24 256 l 1,9,-1
 230.4 256 l 1,10,-1
 230.4 227.84 l 1,11,-1
 174.08 227.84 l 1,6,-1
EndSplineSet
EndChar

StartChar: quotedblbase
Encoding: 8222 8222 154
Width: 258
VWidth: 450
Flags: W
LayerCount: 2
Fore
SplineSet
117.76 -28.1602 m 1,0,-1
 117.76 0 l 1,1,-1
 89.5996 0 l 1,2,-1
 89.5996 28.1602 l 1,3,-1
 145.92 28.1602 l 1,4,-1
 145.92 -28.1602 l 1,5,-1
 117.76 -28.1602 l 1,0,-1
202.24 -28.1602 m 1,6,-1
 202.24 0 l 1,7,-1
 174.08 0 l 1,8,-1
 174.08 28.1602 l 1,9,-1
 230.4 28.1602 l 1,10,-1
 230.4 -28.1602 l 1,11,-1
 202.24 -28.1602 l 1,6,-1
EndSplineSet
EndChar

StartChar: dagger
Encoding: 8224 8224 155
Width: 166
VWidth: 468
Flags: W
LayerCount: 2
Fore
SplineSet
81.9199 -38.4004 m 1,0,-1
 81.9199 46.0801 l 1,1,-1
 53.7598 46.0801 l 1,2,-1
 53.7598 74.2402 l 1,3,-1
 81.9199 74.2402 l 1,4,-1
 81.9199 102.4 l 1,5,-1
 110.08 102.4 l 1,6,-1
 110.08 74.2402 l 1,7,-1
 138.24 74.2402 l 1,8,-1
 138.24 46.0801 l 1,9,-1
 110.08 46.0801 l 1,10,-1
 110.08 -38.4004 l 1,11,-1
 81.9199 -38.4004 l 1,0,-1
EndSplineSet
EndChar

StartChar: bullet
Encoding: 8226 8226 156
Width: 74
VWidth: 540
Flags: W
LayerCount: 2
Fore
SplineSet
17.9199 145.92 m 1,0,-1
 17.9199 174.08 l 1,1,-1
 46.0801 174.08 l 1,2,-1
 46.0801 145.92 l 1,3,-1
 17.9199 145.92 l 1,0,-1
EndSplineSet
EndChar

StartChar: ellipsis
Encoding: 8230 8230 157
Width: 258
VWidth: 468
Flags: W
LayerCount: 2
Fore
SplineSet
89.5996 17.9199 m 1,0,-1
 89.5996 46.0801 l 1,1,-1
 117.76 46.0801 l 1,2,-1
 117.76 17.9199 l 1,3,-1
 89.5996 17.9199 l 1,0,-1
145.92 17.9199 m 1,4,-1
 145.92 46.0801 l 1,5,-1
 174.08 46.0801 l 1,6,-1
 174.08 17.9199 l 1,7,-1
 145.92 17.9199 l 1,4,-1
202.24 17.9199 m 1,8,-1
 202.24 46.0801 l 1,9,-1
 230.4 46.0801 l 1,10,-1
 230.4 17.9199 l 1,11,-1
 202.24 17.9199 l 1,8,-1
EndSplineSet
EndChar

StartChar: guilsinglleft
Encoding: 8249 8249 158
Width: 120
VWidth: 504
Flags: W
LayerCount: 2
Fore
SplineSet
64 53.7598 m 1,0,-1
 64 81.9199 l 1,1,-1
 92.1602 81.9199 l 1,2,-1
 92.1602 53.7598 l 1,3,-1
 64 53.7598 l 1,0,-1
35.8398 81.9199 m 1,4,-1
 35.8398 110.08 l 1,5,-1
 64 110.08 l 1,6,-1
 64 81.9199 l 1,7,-1
 35.8398 81.9199 l 1,4,-1
64 110.08 m 1,8,-1
 64 138.24 l 1,9,-1
 92.1602 138.24 l 1,10,-1
 92.1602 110.08 l 1,11,-1
 64 110.08 l 1,8,-1
EndSplineSet
EndChar

StartChar: guilsinglright
Encoding: 8250 8250 159
Width: 120
VWidth: 504
Flags: W
LayerCount: 2
Fore
SplineSet
35.8398 53.7598 m 1,0,-1
 35.8398 81.9199 l 1,1,-1
 64 81.9199 l 1,2,-1
 64 53.7598 l 1,3,-1
 35.8398 53.7598 l 1,0,-1
64 81.9199 m 1,4,-1
 64 110.08 l 1,5,-1
 92.1602 110.08 l 1,6,-1
 92.1602 81.9199 l 1,7,-1
 64 81.9199 l 1,4,-1
35.8398 110.08 m 1,8,-1
 35.8398 138.24 l 1,9,-1
 64 138.24 l 1,10,-1
 64 110.08 l 1,11,-1
 35.8398 110.08 l 1,8,-1
EndSplineSet
EndChar

StartChar: Euro
Encoding: 8364 8364 160
Width: 212
VWidth: 540
Flags: W
LayerCount: 2
Fore
SplineSet
99.8398 89.5996 m 1,0,-1
 99.8398 117.76 l 1,1,-1
 71.6797 117.76 l 1,2,-1
 71.6797 145.92 l 1,3,-1
 99.8398 145.92 l 1,4,-1
 99.8398 174.08 l 1,5,-1
 71.6797 174.08 l 1,6,-1
 71.6797 202.24 l 1,7,-1
 99.8398 202.24 l 1,8,-1
 99.8398 230.4 l 1,9,-1
 184.32 230.4 l 1,10,-1
 184.32 202.24 l 1,11,-1
 156.16 202.24 l 1,12,-1
 156.16 174.08 l 1,13,-1
 128 174.08 l 1,14,-1
 128 145.92 l 1,15,-1
 156.16 145.92 l 1,16,-1
 156.16 117.76 l 1,17,-1
 184.32 117.76 l 1,18,-1
 184.32 89.5996 l 1,19,-1
 99.8398 89.5996 l 1,0,-1
EndSplineSet
EndChar

StartChar: trademark
Encoding: 8482 8482 161
Width: 396
VWidth: 647
Flags: W
LayerCount: 2
Fore
SplineSet
171.52 309.76 m 1,0,-1
 171.52 366.08 l 1,1,-1
 143.36 366.08 l 1,2,-1
 143.36 394.24 l 1,3,-1
 368.64 394.24 l 1,4,-1
 368.64 309.76 l 1,5,-1
 340.48 309.76 l 1,6,-1
 340.48 366.08 l 1,7,-1
 312.32 366.08 l 1,8,-1
 312.32 309.76 l 1,9,-1
 284.16 309.76 l 1,10,-1
 284.16 366.08 l 1,11,-1
 256 366.08 l 1,12,-1
 256 309.76 l 1,13,-1
 227.84 309.76 l 1,14,-1
 227.84 366.08 l 1,15,-1
 199.68 366.08 l 1,16,-1
 199.68 309.76 l 1,17,-1
 171.52 309.76 l 1,0,-1
EndSplineSet
EndChar

StartChar: uniFB00
Encoding: 64256 64256 162
Width: 304
VWidth: 576
Flags: W
LayerCount: 2
Fore
SplineSet
135.68 125.44 m 1,0,-1
 135.68 209.92 l 1,1,-1
 107.52 209.92 l 1,2,-1
 107.52 238.08 l 1,3,-1
 135.68 238.08 l 1,4,-1
 135.68 322.56 l 1,5,-1
 192 322.56 l 1,6,-1
 192 294.4 l 1,7,-1
 163.84 294.4 l 1,8,-1
 163.84 238.08 l 1,9,-1
 220.16 238.08 l 1,10,-1
 220.16 322.56 l 1,11,-1
 276.48 322.56 l 1,12,-1
 276.48 294.4 l 1,13,-1
 248.32 294.4 l 1,14,-1
 248.32 238.08 l 1,15,-1
 276.48 238.08 l 1,16,-1
 276.48 209.92 l 1,17,-1
 248.32 209.92 l 1,18,-1
 248.32 125.44 l 1,19,-1
 220.16 125.44 l 1,20,-1
 220.16 209.92 l 1,21,-1
 163.84 209.92 l 1,22,-1
 163.84 125.44 l 1,23,-1
 135.68 125.44 l 1,0,-1
EndSplineSet
EndChar

StartChar: uniFB01
Encoding: 64257 64257 163
Width: 212
VWidth: 576
Flags: W
LayerCount: 2
Fore
SplineSet
99.8398 125.44 m 1,0,-1
 99.8398 209.92 l 1,1,-1
 71.6797 209.92 l 1,2,-1
 71.6797 238.08 l 1,3,-1
 99.8398 238.08 l 1,4,-1
 99.8398 322.56 l 1,5,-1
 184.32 322.56 l 1,6,-1
 184.32 294.4 l 1,7,-1
 128 294.4 l 1,8,-1
 128 238.08 l 1,9,-1
 156.16 238.08 l 1,10,-1
 156.16 266.24 l 1,11,-1
 184.32 266.24 l 1,12,-1
 184.32 125.44 l 1,13,-1
 156.16 125.44 l 1,14,-1
 156.16 209.92 l 1,15,-1
 128 209.92 l 1,16,-1
 128 125.44 l 1,17,-1
 99.8398 125.44 l 1,0,-1
EndSplineSet
EndChar

StartChar: uniFB02
Encoding: 64258 64258 164
Width: 212
VWidth: 576
Flags: W
LayerCount: 2
Fore
SplineSet
156.16 238.08 m 1,0,-1
 156.16 294.4 l 1,1,-1
 128 294.4 l 1,2,-1
 128 238.08 l 1,3,-1
 156.16 238.08 l 1,0,-1
99.8398 125.44 m 1,4,-1
 99.8398 209.92 l 1,5,-1
 71.6797 209.92 l 1,6,-1
 71.6797 238.08 l 1,7,-1
 99.8398 238.08 l 1,8,-1
 99.8398 322.56 l 1,9,-1
 184.32 322.56 l 1,10,-1
 184.32 125.44 l 1,11,-1
 156.16 125.44 l 1,12,-1
 156.16 209.92 l 1,13,-1
 128 209.92 l 1,14,-1
 128 125.44 l 1,15,-1
 99.8398 125.44 l 1,4,-1
EndSplineSet
EndChar

StartChar: uniFB03
Encoding: 64259 64259 165
Width: 350
VWidth: 576
Flags: W
LayerCount: 2
Fore
SplineSet
153.6 125.44 m 1,0,-1
 153.6 209.92 l 1,1,-1
 125.44 209.92 l 1,2,-1
 125.44 238.08 l 1,3,-1
 153.6 238.08 l 1,4,-1
 153.6 322.56 l 1,5,-1
 209.92 322.56 l 1,6,-1
 209.92 294.4 l 1,7,-1
 181.76 294.4 l 1,8,-1
 181.76 238.08 l 1,9,-1
 238.08 238.08 l 1,10,-1
 238.08 322.56 l 1,11,-1
 322.56 322.56 l 1,12,-1
 322.56 294.4 l 1,13,-1
 266.24 294.4 l 1,14,-1
 266.24 238.08 l 1,15,-1
 294.4 238.08 l 1,16,-1
 294.4 266.24 l 1,17,-1
 322.56 266.24 l 1,18,-1
 322.56 125.44 l 1,19,-1
 294.4 125.44 l 1,20,-1
 294.4 209.92 l 1,21,-1
 266.24 209.92 l 1,22,-1
 266.24 125.44 l 1,23,-1
 238.08 125.44 l 1,24,-1
 238.08 209.92 l 1,25,-1
 181.76 209.92 l 1,26,-1
 181.76 125.44 l 1,27,-1
 153.6 125.44 l 1,0,-1
EndSplineSet
EndChar

StartChar: uniFB04
Encoding: 64260 64260 166
Width: 350
VWidth: 576
Flags: W
LayerCount: 2
Fore
SplineSet
294.4 238.08 m 1,0,-1
 294.4 294.4 l 1,1,-1
 266.24 294.4 l 1,2,-1
 266.24 238.08 l 1,3,-1
 294.4 238.08 l 1,0,-1
153.6 125.44 m 1,4,-1
 153.6 209.92 l 1,5,-1
 125.44 209.92 l 1,6,-1
 125.44 238.08 l 1,7,-1
 153.6 238.08 l 1,8,-1
 153.6 322.56 l 1,9,-1
 209.92 322.56 l 1,10,-1
 209.92 294.4 l 1,11,-1
 181.76 294.4 l 1,12,-1
 181.76 238.08 l 1,13,-1
 238.08 238.08 l 1,14,-1
 238.08 322.56 l 1,15,-1
 322.56 322.56 l 1,16,-1
 322.56 125.44 l 1,17,-1
 294.4 125.44 l 1,18,-1
 294.4 209.92 l 1,19,-1
 266.24 209.92 l 1,20,-1
 266.24 125.44 l 1,21,-1
 238.08 125.44 l 1,22,-1
 238.08 209.92 l 1,23,-1
 181.76 209.92 l 1,24,-1
 181.76 125.44 l 1,25,-1
 153.6 125.44 l 1,4,-1
EndSplineSet
EndChar

StartChar: uniFB06
Encoding: 64262 64262 167
Width: 304
VWidth: 576
Flags: W
LayerCount: 2
Fore
SplineSet
107.52 125.44 m 1,0,-1
 107.52 153.6 l 1,1,-1
 163.84 153.6 l 1,2,-1
 163.84 181.76 l 1,3,-1
 107.52 181.76 l 1,4,-1
 107.52 266.24 l 1,5,-1
 220.16 266.24 l 1,6,-1
 220.16 322.56 l 1,7,-1
 248.32 322.56 l 1,8,-1
 248.32 266.24 l 1,9,-1
 276.48 266.24 l 1,10,-1
 276.48 238.08 l 1,11,-1
 248.32 238.08 l 1,12,-1
 248.32 153.6 l 1,13,-1
 276.48 153.6 l 1,14,-1
 276.48 125.44 l 1,15,-1
 220.16 125.44 l 1,16,-1
 220.16 238.08 l 1,17,-1
 135.68 238.08 l 1,18,-1
 135.68 209.92 l 1,19,-1
 192 209.92 l 1,20,-1
 192 125.44 l 1,21,-1
 107.52 125.44 l 1,0,-1
EndSplineSet
EndChar
